<?xml version="1.0" encoding="UTF-8"?>
<svg id="Layer_1" data-name="Layer 1" xmlns="http://www.w3.org/2000/svg" viewBox="0 0 278.94 267.28">
  <defs>
    <style>
      .cls-1 {
        fill: #2b568e;
      }

      .cls-1, .cls-2, .cls-3, .cls-4, .cls-5, .cls-6, .cls-7, .cls-8, .cls-9, .cls-10, .cls-11, .cls-12, .cls-13, .cls-14, .cls-15, .cls-16, .cls-17, .cls-18, .cls-19, .cls-20, .cls-21, .cls-22, .cls-23, .cls-24, .cls-25, .cls-26, .cls-27, .cls-28, .cls-29, .cls-30, .cls-31, .cls-32, .cls-33, .cls-34, .cls-35, .cls-36, .cls-37, .cls-38, .cls-39, .cls-40, .cls-41, .cls-42, .cls-43, .cls-44, .cls-45, .cls-46, .cls-47, .cls-48, .cls-49, .cls-50, .cls-51, .cls-52, .cls-53, .cls-54, .cls-55, .cls-56, .cls-57, .cls-58, .cls-59, .cls-60, .cls-61 {
        stroke-width: 0px;
      }

      .cls-2 {
        fill: #d9acce;
      }

      .cls-3 {
        fill: #9b57a2;
      }

      .cls-4 {
        fill: #afdee6;
      }

      .cls-5 {
        fill: #018bbd;
      }

      .cls-6 {
        fill: #74cbd5;
      }

      .cls-7 {
        fill: #01a2c6;
      }

      .cls-8 {
        fill: #3458a7;
      }

      .cls-9 {
        fill: #2d7dc1;
      }

      .cls-10 {
        fill: #0096ad;
      }

      .cls-11 {
        fill: #166cb5;
      }

      .cls-12 {
        fill: #5883a8;
      }

      .cls-13 {
        fill: #3d6c9b;
      }

      .cls-14 {
        fill: #6b8aa3;
      }

      .cls-15 {
        fill: #70449a;
      }

      .cls-16 {
        fill: #e1e4eb;
      }

      .cls-17 {
        fill: #2cbfd1;
      }

      .cls-18 {
        fill: #46419a;
      }

      .cls-19 {
        fill: #225eac;
      }

      .cls-20 {
        fill: #8ca3b9;
      }

      .cls-21 {
        fill: #3b3792;
      }

      .cls-22 {
        fill: #547894;
      }

      .cls-23 {
        fill: #668098;
      }

      .cls-24 {
        fill: #9ed9dd;
      }

      .cls-25 {
        fill: #aac0d0;
      }

      .cls-26 {
        fill: #574199;
      }

      .cls-27 {
        fill: #4fbeca;
      }

      .cls-28 {
        fill: #34368f;
      }

      .cls-29 {
        fill: #026ea9;
      }

      .cls-30 {
        fill: #44637c;
      }

      .cls-31 {
        fill: #1d9bd7;
      }

      .cls-32 {
        fill: #048daf;
      }

      .cls-33 {
        fill: #9ed8d9;
      }

      .cls-34 {
        fill: #a96ca6;
      }

      .cls-35 {
        fill: #036989;
      }

      .cls-36 {
        fill: #356281;
      }

      .cls-37 {
        fill: #a57ab2;
      }

      .cls-38 {
        fill: #204ea2;
      }

      .cls-39 {
        fill: #464099;
      }

      .cls-40 {
        fill: #00577c;
      }

      .cls-41 {
        fill: #6c489d;
      }

      .cls-42 {
        fill: #e1f2f4;
      }

      .cls-43 {
        fill: #ced7df;
      }

      .cls-44 {
        fill: #40bddd;
      }

      .cls-45 {
        fill: #177b9c;
      }

      .cls-46 {
        fill: #78cdd4;
      }

      .cls-47 {
        fill: #5a3f98;
      }

      .cls-48 {
        fill: #14a9ba;
      }

      .cls-49 {
        fill: #8599ac;
      }

      .cls-50 {
        fill: #6055a0;
      }

      .cls-51 {
        fill: #b2bcca;
      }

      .cls-52 {
        fill: #7acdd0;
      }

      .cls-53 {
        fill: #a569ac;
      }

      .cls-54 {
        fill: #0a4567;
      }

      .cls-55 {
        fill: #c895c1;
      }

      .cls-56 {
        fill: #85a5bd;
      }

      .cls-57 {
        fill: #748fb5;
      }

      .cls-58 {
        fill: #3a3593;
      }

      .cls-59 {
        fill: #55748f;
      }

      .cls-60 {
        fill: #007a98;
      }

      .cls-61 {
        fill: #2e6ab3;
      }
    </style>
  </defs>
  <path class="cls-58" d="M124.37,259.27c3.11,2.3,5.85,5,8.85,7.83-1.42.43-2.49-.02-3.56-.06-9.95-.33-19.63-2.31-29.19-4.91-6.94-1.88-13.62-4.5-20.17-7.45-9.19-4.15-17.8-9.28-25.95-15.22-5.18-3.78-9.81-8.15-14.46-12.53-1.91-1.8-3.16-3.94-3.76-6.52-.85-3.65-1.92-7.25-1.87-11.04,2.14.86,4.19.37,6.2-.47.51-.21.96-.67,1.5-.73,6.65-.79,13.14-3.45,20.01-1.45,3.29.96,5.67-.2,6.93-3.01.49-1.1.29-2.17.16-3.28-.23-2.01.58-2.97,2.59-3.24,3.32-.45,4.92.41,6.67,3.42,2.28,3.92,4.44,7.93,7.34,11.45,4.25,7.29,9.62,13.8,14.48,20.66,3.78,5.33,8.05,10.28,12.38,15.18,3.12,3.53,6.39,6.89,9.88,10.05.59.53,1.13,1.13,1.96,1.31Z"/>
  <path class="cls-3" d="M.15,137.82c-.45-7.9.2-15.74,1.01-23.59.5-4.93,2.84-8.47,6.47-11.47,2.94-2.43,5.76-5.01,9.26-6.65,2.47-.65,4.53-2.14,6.72-3.34.85-.46,1.62-.96,2.63-.82.7.2,1.43.21,2.14.12,1.84-.24,3.39.26,4.92,1.35,2.15,1.54,4.75,2.27,7.26,1.61,4.99-1.32,8.47.74,11.48,4.33.36,1.21-.33,2.17-.83,3.15-2.76,5.41-5.31,10.91-7.5,16.58-1.67,3.89-2.6,8.03-4.22,11.94-2.03,4.88-3.12,5.6-8.32,5.03-.63-.07-1.33-.33-1.9-.09-3.31,1.41-6.91.77-10.32,1.59-4.18,1-8.56.62-12.81,1.39-1.01.18-2.09.06-3.08.37-1.53.49-2.45,0-2.92-1.5Z"/>
  <path class="cls-38" d="M213.12,247.69c-3.75,2.45-7.81,4.33-11.84,6.24-13.84,6.56-28.48,10.35-43.61,12.36-1.5.2-3.03.28-4.52.55-3.58.63-6.77-.42-9.87-2.07-2.48-1.32-4.82-2.84-6.96-4.65-4.83-4.07-9.49-8.32-13.38-13.34,1.07-1.94,2.61-3.43,4.59-4.34,5.67-2.61,11.75-3.96,17.87-3.46,4.54.38,8.97.24,13.46-.07,5.47,1.37,10.83,3.17,16.33,4.44,11.05,2.69,22.19,4.3,33.61,3.22,1.51-.14,3.24-.62,4.32,1.12Z"/>
  <path class="cls-17" d="M141.36,39.98c.14-.02.24.04.31.17.19.1.36.22.51.35h-.01c-1.02,1.05-1.01,1.02-2.57.15-3.74-2.09-7.46-4.24-11.63-5.42-2.52-.71-3.39-.41-4.62,1.92-.88,1.67-2.06,3.2-2.32,5.18-.12.92-.88,1.48-1.67,1.9-1.05.56-2.12,1.09-3.17,1.65-2.8.98-5.74,1.36-8.59,2.14-1.94.53-3.84,1.11-5.46,2.35-.77.59-1.43,1.26-1.79,2.2-.91,2.36-.38,3.05,2.16,2.75,3.09-.37,6.19-.73,9.24-1.36,1.42-.29,2.86-.38,4.29-.18.67.09,1.76-.14,1.59,1.18-2.22.61-4.54.5-6.79.99-3.93.86-7.9,1.49-11.86,2.22-2.94-.18-5.66,1-8.53,1.33-1.95.23-3.86.74-5.82.88-1.28.02-2.55-.01-3.77-.49-2.19-.85-2.91-2.54-1.36-4.28,1.92-2.16,1.6-4.22.84-6.63-2.49-7.91-4.63-15.92-6.61-23.96-1.35-5.5-.2-7.04,5.43-7.77.85-.11,1.76.35,2.54-.27,3.8-.22,7.46.69,11.05,1.65,13.98,3.72,27.19,9.4,39.87,16.31.17.03.29.12.38.27.18.08.37.16.55.24.17.03.31.12.4.27l.05.02c.17.18.35.35.62.37.15-.01.27.05.36.17.17.14.35.24.55.32.17,0,.31.06.41.19.17.11.34.22.51.32.15.06.3.13.45.19.17.08.33.18.48.3.16.07.32.15.48.22.17.04.31.14.4.3l.06.03c.19.17.36.35.64.36.14-.02.25.04.32.16.19.12.35.3.58.37.16-.01.28.05.36.19.19.06.35.18.47.35h0c.2.18.39.36.66.41Z"/>
  <path class="cls-54" d="M250.14,217.55c-.14.77-.57,1.6-1.36,1.09-1.33-.85-2.44-.19-3.58.18-2.03.67-4.05,1.35-6.21,1.47-.75-.46-1.51-.3-2.31-.13-1.4.3-2.83.45-4.27.41-3.17-.08-4.27-1.29-4.1-4.5.21-4.05,1.69-7.77,3.03-11.51.54-1.5,1.13-2.98,1.41-4.56,1.01-5.74,3.82-10.79,6.11-16.04.99-1.53,2.69-2.13,4.12-3.1,2.94-1.99,5.92-3.92,8.84-5.94,8.4-6.37,16.25-13.33,23.03-21.44.49-.59.82-1.58,1.78-1.34,1.18.29.72,1.41.82,2.22-1.14,7.46-2.65,14.86-5.26,21.95-4.72,12.81-10.33,25.17-18.77,36.08-1.22,1.58-2.87,3.01-3.27,5.15Z"/>
  <path class="cls-41" d="M.15,137.82c.78.83,1.42,1.25,2.81.75,1.97-.72,4.25-.09,6.32-.71,1.47-.44,2.98-.56,4.49-.44,1.86.14,3.68-.13,5.44-.59,1.7-.45,3.28-.95,5.1-.45,1.06.29,2.14-.48,3.19-.83,1.23-.42,2.38-.6,3.72-.24,1.2.32,2.53.2,3.8.16,1.49-.05,2.2-1.18,2.75-2.35,1.26-2.67,2.19-5.46,3.15-8.25.72-2.09,1.03-4.34,2.36-6.2,1.23.49,1.15,1.58,1.15,2.6,0,.87-.25,1.72-.32,2.59-.25,2.97.13,3.66,2.81,5.02.82.72.25,1.42-.05,2.1-.76,1.71-1.58,3.39-2.36,5.09-.06.2-.13.39-.22.58-.1.27-.24.53-.38.79-.08.16-.17.32-.25.48-.12.23-.25.46-.37.69-.07.16-.14.31-.22.47-.11.24-.22.48-.33.72-.06.18-.13.35-.19.53-.12.39-.21.79-.34,1.18-3.37,8.88-6.87,17.71-9.8,26.74-.14.41-.33.81-.46,1.22-.06.2-.13.39-.2.58-.19.47-.3.96-.39,1.45-.04.21-.09.41-.15.61-.18.52-.26,1.08-.54,1.57-.15.22-.35.33-.61.32-.25-.05-.48-.15-.69-.3-1.88-1.12-4.02-1.01-6.02-.94-5.05.19-10.11-1.1-15.15.14-.87.22-1.76.04-2.18-.97-2.54-7.06-3.94-14.37-4.88-21.78-.45-3.54-.9-7.09-1.01-10.67-.02-.55.03-1.11.04-1.66Z"/>
  <path class="cls-26" d="M85.56,212.69c-1.45-.73-2.22-2.09-2.88-3.42-1.58-3.14-3.83-5.87-5.36-9.05-1.1-2.31-4.19-3.19-6.64-2.28-.96.36-1.41,1.27-.91,2.58.61,1.59.32,2.83-.58,4.24-1.7,2.67-4.03,3.69-7.1,2.75-3.66-1.13-7.33-1.43-10.98-.03-1.08.41-2.18.44-3.3.43-2.57-.01-5.08.21-7.26,1.83-.37.27-.89.52-1.32.49-1.46-.07-2.8.38-4.05.88-.68-.49-.31-1.36-.91-1.75-.17-1.46-.18-2.91.05-4.37.39-1.11-.14-2.31.33-3.41-.12-.8,0-1.57.18-2.35.19-.5.04-1.06.28-1.55.05-2.91.53-5.75,1.53-8.5,3.1-1.02,6.25-1.86,9.54-1.38,2.55.37,5.06.38,7.61.07,2.02-.25,2.93-1.3,3.1-3.26.2-2.19-.18-4.29-.82-6.36-.98-3.12-2.01-6.22-3.02-9.33-2-6.16-2.49-12.47-2.31-18.88.02-.7.29-1.43-.16-2.09.8-3.12,2.46-5.87,3.69-8.81.8-1.91,1.59-3.83,2.35-5.76.29-.73.49-1.47,1.6-2.03,0,2.79-.01,5.31,0,7.83.07,11.4,2.61,22.31,6.63,32.9,2.18,5.75,4.65,11.37,7.79,16.68.77,1.3,1.53,2.61,1.95,4.08.03.26.2.45.36.63.27.27.53.54.55.95.14.14.24.31.33.48.29.3.58.6.61,1.05.16.08.26.2.3.38l.23.42c.08.21.24.38.37.57.29.27.54.56.55.99.15.11.25.26.3.43.07.15.13.31.2.46.12.16.23.33.32.5.13.1.19.24.18.4.1.2.21.38.34.56.29.29.53.61.57,1.04.15.09.26.22.32.39.14.1.21.23.21.4.1.2.21.39.35.57.28.27.55.55.59.97.13.14.24.29.33.46.3.3.56.63.61,1.08.18.04.28.16.28.34.08.18.15.35.23.53.13.15.25.32.36.49l.08.11c.19.02.28.12.28.31l.69,1.13c.18.03.27.13.28.31.08.17.16.35.24.52.12.16.24.33.36.5l.08.11c.18.03.27.13.28.31.21.36.42.71.62,1.07-.19.44.12,1.04-.41,1.38Z"/>
  <path class="cls-48" d="M212.06,51.01c.07.32.14.64.2.97.2.3.14.69.33.99.05.3.11.59.16.89.17.32.15.69.3,1.02.07.44.14.88.2,1.32.13.36.12.76.31,1.1.04.3.08.61.12.91.22.3.17.68.32,1,.05.33.1.66.15.99-.3.19-.58.12-.86-.04-.17-.12-.31-.26-.44-.42-.23-.33-.4-.7-.53-1.08-.12-.37-.17-.76-.21-1.15-.05-.38-.13-.75-.26-1.11-.08-.18-.13-.37-.19-.56-.13-.39-.28-.78-.41-1.18-.08-.21-.13-.43-.17-.65-1.06-4.51-2.58-8.89-3.86-13.33-.8-2.76-2.47-5.03-4.36-7.07-1.4-1.51-3.16-1.96-5.43-1.38-3.85.98-7.04,2.69-9.75,5.62-2.19,2.37-4.98,2.91-8.12,1.74-2.24-.84-4.52-1.6-6.71-2.54-3.56-1.53-6.58.47-9.6,1.58-1.67.61-.54,2.31.22,3.44.49.73,1.62,1.15,1.15,2.34-.01.04-.12.05-.19.05-.08,0-.15-.05-.22-.08-5.75-3.67-11.5-7.34-17.25-11.01-1.8-1.88-1.1-3.84-.07-5.73.99-1.82,2.69-1.71,4.42-1.43,2.05.34,4.09.7,6.14,1.01,1.54.24,2.95-.06,3.75-1.49,2.75-4.85,7.57-7.7,11.23-11.68,1.31-1.43,2.64-2.78,3.37-4.58.81-2.01,2.34-2.41,4.27-2.2,2.62.28,5.08,1.29,7.68,1.65.31.04.61.17.93,0,5.99,3.61,11.38,7.69,14.3,14.47,3.26,7.55,5.95,15.25,7.9,23.23.13.34.09.74.32,1.05.04.16.07.31.11.47.2.3.16.67.3.99.06.31.12.63.17.94.2.28.19.63.29.94Z"/>
  <path class="cls-1" d="M276.97,154.24c-.07-.54.1-1.12-.32-1.74-1.04.27-1.15,1.38-1.72,2.04-4.71,5.42-9.86,10.38-15.39,14.97-2.08,1.73-4.16,3.46-6.23,5.2-.38.32-.77.57-1.27.6-1.01-2.77-1.92-5.56-1.75-8.56.16-2.8-.19-5.56-.49-8.33-.54-4.95,1.13-9.4,2.96-13.83,1.31-2.86,3.74-4.9,5.55-7.4,4.57-6.31,9.15-12.61,12.66-19.61.35-.7.85-1.36.73-2.22.22-1.19.85-2.22,1.36-3.28.85-1.8,1.3-3.71,1.71-5.58.52-.08.74.1.8.46.77,5.11,1.95,10.13,2.48,15.29.79,7.7,1.07,15.4.75,23.12-.14,3.49-.33,6.99-1.3,10.38-.59-.36-.02-1.13-.55-1.51Z"/>
  <path class="cls-26" d="M136.29,137.41c.14.03.21.12.19.27.13.3.07.55-.17.77-.45.26-.92.22-1.39.08-8.02-2.25-16.12-3.37-24.52-3.07-5.06.18-10.17-.82-15.29-.63-1.6.06-3.19.05-4.78.25-3.5.44-4.4-.26-4.98-3.74-.07-.39-.01-.8-.26-1.15-.29-7.83-.07-15.65-.12-23.48-.05-7.75,0-15.5-.01-23.25,0-1.86,0-1.87,1.82-1.87,5.67,0,11.35,0,17.02,0,2.83,0,2.48-.08,2.47,2.41-.02,10.63-.04,21.25-.06,31.88,0,.54,0,1.09,0,1.55.75.45,1-.08,1.29-.41,6.7-7.61,13.41-15.21,20.09-22.84,3.21-3.66,6.39-7.35,9.52-11.09.78-.93,1.55-1.48,2.81-1.47,7.98.03,15.97.02,23.97.02.13.91-.6,1.14-.95,1.6-4.2,5.55-9.23,10.38-13.72,15.68-7.23,8.53-14.66,16.88-22.12,25.21-.83.92-.72,1.5.07,2.41,2.67,3.07,5.22,6.24,7.81,9.37.14.19.3.37.48.52h0c.16.15.3.32.43.5l.03.03c.18.1.31.25.39.44Z"/>
  <path class="cls-26" d="M157.96,111.87c1.15-.51,2.35-.18,3.53-.19,4.23-.04,8.46-.02,12.69,0,1.82.01,1.88.07,1.95,1.88.06,1.75.03,3.51.1,5.26.03.67-.22,1.43.53,2.1,1.11-1.57,2.19-3.1,3.61-4.37,4.42-3.96,9.6-5.87,15.48-6.01,1.35-.03,2.71.07,4.07.05,1.25-.02,1.67.59,1.66,1.77-.05,5.26-.06,10.53-.06,15.79,0,1.17-.48,1.26-1.49.99-3.44-.93-6.94-.94-10.44-.35-6.89,1.17-11.11,5.16-12.68,11.95-.11.46-.16.94-.24,1.41-.42.12-.91.06-1.1-.27-1.24-2.13-3.21-1.95-5.23-1.8-1.84.14-3.66-.27-5.49-.41-3.15-.24-3.23-.21-6.72,1.46-.52-.32-.35-.85-.35-1.29-.02-8.87-.01-17.73,0-26.6,0-.47-.07-.96.2-1.4Z"/>
  <path class="cls-49" d="M229.48,114.84c-.43-8.04-.87-16.08-1.93-24.08-.33-2.52-.88-5.02-.91-7.58.5-.04.68.26.78.69.03.13-.03.48.05.38,1.03-1.24,2.13-.7,3.24-.19.65.3,1.25.69,1.87,1.05,2.73,1.56,6.32.06,7.18-3.01.26-.92.4-1.87.59-2.8.66-3.2,1.74-6.06,4.95-7.7,1.87-.96,2.89-2.91,4.18-4.52,1.82-2.26,3.92-4.16,6.81-4.96,1.49,1.68,2.58,3.63,3.68,5.56,2.45,4.29,5.19,8.42,6.91,13.09-.64,5.24-3,9.45-7.53,12.28-3.58,2.24-7.25,4.32-11.09,6.09-.58.26-1.07.79-1.67.91-4.37.82-5.75,4.03-6.42,7.85-.12.7-.36,1.39-.73,2.01-.67,1.12-1.54,1.59-2.77.77-.26-.18-.52-.38-.82-.49-4.42-1.62-4.18-1.85-4.81,2.42-.14.96-.13,2.14-1.58,2.23Z"/>
  <path class="cls-23" d="M229.48,114.84c.82-.68,1.01-1.6.95-2.58-.07-1.15.36-2.2.65-3.26.22-.8.78-1.43,1.78-.67.64.49,1.38.81,2.22.77.8-.03,1.3.49,1.85.95,1.07.91,1.6.82,2.06-.49.6-1.72,1.06-3.5,1.52-5.27.54-2.05,1.38-3.74,3.84-3.93.45-.04.9-.32,1.31-.56,3.96-2.36,8.4-3.85,12.09-6.68.37-.29.81-.54,1.26-.66,1.75-.48,2.75-1.74,3.67-3.2,1.71-2.69,3.28-5.43,4.23-8.49,2.02,3.57,3.29,7.25,3.46,11.49.36,8.82-2.65,16.41-7.43,23.51-.38.35-.86.28-.99-.11-.76-2.35-2.49-1.76-4.09-1.37-2.82.69-5.34,2.12-7.77,3.6-2.48,1.5-5,2.77-7.82,3.43-2.74.64-4.75,2.14-5.68,4.91-.28.83-.73,1.61-1.43,2.17-1.5,1.21-2.83,2.55-3.86,4.19-.34.54-.86,1.11-1.53.97-.9-.18-.49-1.04-.5-1.6-.01-.94-.21-1.91.16-2.83.02-4.77.04-9.53.05-14.3Z"/>
  <path class="cls-42" d="M81.71,62.02c-.28.04-.56.08-.84.12-.34.19-.75.16-1.1.34-.26.05-.52.09-.78.14-.36.18-.78.16-1.13.36-.27.04-.53.09-.8.13-.36.17-.77.16-1.13.33l-.78.14c-.36.18-.78.16-1.13.36-.27.05-.54.09-.81.14-.35.17-.76.14-1.1.34-.15.03-.31.06-.46.09-.4.42-1.04.04-1.44.43l-.2.11-.22-.02c-.31.21-.7.15-1.01.33-.28.06-.56.12-.83.19-.35.14-.76.08-1.06.37l-.2.12h-.23c-.31.16-.71.09-1,.33-.17.04-.33.08-.5.11-.27.22-.66.13-.94.35-4.94,1.76-9.93,3.42-14.82,5.3-13.26,5.1-26.04,11.15-37.47,19.74-.25.19-.53.34-.8.5-.3.05-.52.24-.68.49l.04-.03c-.21.12-.38.29-.55.46l.02-.02c-.83-.99-.86-1.19.19-2.23,1.47-1.45,3.22-2.55,4.89-3.74,2.64-1.88,5.45-3.49,8.24-5.13,4.74-2.42,9.59-4.63,14.32-7.08,2.27-1.17,2.71-2.19,1.93-4.68-1.75-5.62-3.3-11.3-4.85-16.98-.5-1.82-1.84-3.05-2.6-4.65l.04-.05c.09-.2.22-.35.4-.46l.03-.03c.13-.18.27-.35.42-.51h0c.18-.15.35-.3.47-.5h-.01c.22-.13.38-.31.45-.57,0-.17.07-.29.23-.35.04-.19.15-.32.34-.37l.07-.09c.08-.19.21-.34.39-.43,3.48-4.07,7.43-7.65,11.48-11.13.17-.14.33-.28.49-.44l.03-.02c.14-.16.3-.3.49-.4l.07-.05c.08-.19.21-.31.4-.36.03-.15.12-.22.27-.22.31-.03.52-.2.63-.48l-.03.02c.24-.07.4-.25.55-.43h0c.36-.07.69.07.72.42.38,4.3,3.18,7.62,4.66,11.48,1.75,4.56,3.39,9.13,4.06,13.99.15,1.11.39,2.2.68,3.28.97,3.57,1.94,4.19,5.5,3.36,3.5-.82,6.97-1.74,10.47-2.54.21-.09.43-.15.65-.2.62-.13,1.26-.18,1.87-.39.19-.06.39-.11.58-.15.48-.09.95-.18,1.42-.33.18-.06.37-.1.56-.14.56-.08,1.13-.11,1.68-.3.19-.07.38-.11.57-.14.61-.03,1.22-.04,1.8-.26.22-.01.43-.02.65-.02.53.13,1.26-.33,1.57.45.14.36-.21.5-.48.63-.31.05-.61.09-.92.14-.44.36-1.05.05-1.49.38-.27.04-.53.09-.8.13-.36.15-.77.14-1.12.33Z"/>
  <path class="cls-18" d="M122.17,151.78c1.61-.2,2.96.18,4.02,1.53,1.08,1.38,2.8,1.53,4.33,1.75,1.64.23,3.37.23,5.02.01,2.59-.34,5.2-.66,7.71-1.47,1.9-.62,3.72-.75,5.33.85.42.42,1.18,1.04,1.81.06,3.7,4.17,7.14,8.56,10.63,12.9,3.8,4.71,7.71,9.34,11.58,14,.25.3.56.56.57,1.15-1.05,0-2.11,0-3.16,0-7.18-.01-14.36.12-21.54-.02-1.68-.03-2.8-.56-3.82-1.89-5.83-7.58-11.75-15.1-17.61-22.66-1.61-2.08-3.52-3.91-4.87-6.19Z"/>
  <path class="cls-51" d="M256.32,62.13c-.5,1.05-1.65,1.19-2.49,1.77-2.05,1.43-3.72,3.22-5.11,5.29-.85,1.27-1.83,2.48-3.23,3.12-3,1.36-3.77,4.09-4.46,6.9-.09.38-.12.79-.13,1.19-.11,3.25-2.02,4.96-4.88,6.07-1.02.39-1.79.41-2.68-.12-1.09-.66-2.24-1.22-3.31-1.92-.98-.64-1.77-.51-2.46.4-.69-.42-.28-1.32-.92-1.63-.96-5.76-1.92-11.52-2.88-17.28.05-.06.14-.14.13-.19-.56-3.7,1.54-5.43,4.66-6.55,1.19-.42,2.14-1.39,3.26-1.99,2.78-1.48,4.11-3.88,4.64-6.86.24-1.33.5-2.67,1.13-3.89,1.16-2.25,1.86-2.58,4.35-2.05,2.38,2,4.42,4.34,6.36,6.74,2.7,3.33,5.4,6.68,7.62,10.37.06.26.22.44.39.64h0Z"/>
  <path class="cls-47" d="M47.11,129.23c-2.93-.19-3.75-1.02-3.77-3.89,0-1.01-.02-2.02.28-3.03.37-1.22.36-2.48-.33-3.65,2.02-6.07,4.94-11.75,7.82-17.44.29-.57.57-1.14.85-1.71,0-.09,0-.18,0-.27,0-.19.04-.37.1-.55.06-.19.14-.36.22-.54.13-.28.27-.55.42-.82,4.6-6.93,8.83-14.15,15.19-19.72,1.41-1.61,3.16-2.8,4.88-4.02,3.81-1.43,7.8-2.22,11.75-3.16,3.18-.76,6.38-1.4,9.58-2.08.22-.05.46.02.78.04-.12.26-.16.53-.31.63-8.5,5.57-15.55,12.64-21.66,20.73-4.86,6.43-9.62,12.92-13.88,19.77-3.12,5.02-5.9,10.22-8.56,15.49-.25.49-.58.94-.88,1.4-1.22.6-1.03,2.44-2.49,2.81Z"/>
  <path class="cls-27" d="M188.65,8.92c-1.38.74-2.76.55-4.12,0-1.72-.7-3.55-.77-5.35-1.01-1.32-.18-2.17.22-2.69,1.68-.72,2.02-2,3.67-3.77,5.09-1.51,1.21-2.69,2.88-4.26,4.09-2.8,2.17-5.12,4.74-6.91,7.8-.92,1.57-2.46,1.64-4.01,1.43-2.12-.29-4.24-.65-6.34-1.04-3.05-.57-4.94,1.11-4.69,4.29.06.71.29,1.4.44,2.09-.15-.07-.31-.14-.46-.21-.19-.05-.34-.16-.45-.33h-.02c-.2-.18-.39-.37-.67-.39-.13.03-.23,0-.3-.11-.2-.17-.39-.35-.68-.36-.13.02-.22-.03-.29-.14-.19-.14-.36-.31-.6-.36-5.03-2.42-10.03-4.92-14.9-7.65-.19-1.69.61-2.54,2.27-2.67,2.53-.2,5.02-.64,7.61-.18,3.04.55,5.54-.51,7.57-3.02,2.14-2.64,5.17-4.49,6.92-7.55.91-1.59,1.95-3.12,2.53-4.87.76-2.3,2.31-3.3,4.72-3.14,1.01.07,2.07.24,3.06-.22,2.63.15,5.19.68,7.69,1.51.33.21.73.17,1.06.33.29.05.57.1.86.15.32.21.72.16,1.05.34.29.05.58.1.87.14.32.2.72.15,1.04.35.29.06.59.12.88.18.32.15.7.09.98.33.16-.05.31-.02.45.08.34.23.76.21,1.13.35.26.06.53.12.79.17.3.19.71.1.98.37.15.03.3.07.45.1.31.19.72.11.99.38.17-.05.32-.01.45.11.31.18.72.11,1.01.37.16-.05.3-.02.43.08.35.22.77.21,1.15.35.26.05.51.11.77.16.31.2.72.12,1.01.37.16-.05.31,0,.42.11.21.1.39.28.63.33.13-.04.23,0,.29.12Z"/>
  <path class="cls-10" d="M164.19,44.36c.34-.28.22-.57-.05-.79-.37-.3-.8-.53-1.15-.84-1.19-1.04-1.53-2.53-1.34-3.9.18-1.25,1.67-1.43,2.72-1.57,1.21-.16,2.26-.48,3.34-1.07,2.03-1.11,4.04-.23,5.99.45,2.03.7,4.07,1.42,6.04,2.28,2.98,1.31,5.42.45,7.63-1.64.58-.55,1.15-1.11,1.7-1.69,1.69-1.79,3.58-3.14,6.16-3.3.62-.04,1.23-.33,1.83-.55.95-.34,1.84-1.17,2.93-.64,1.55.76,3.1,1.37,4.27,2.91,2.34,3.05,3.67,6.43,4.68,10.09.83,2.98,1.79,5.94,2.57,8.94.12.46.13.94.2,1.41-.08.02-.19.09-.22.06-2.7-2.31-5.61-1.26-8.51-.57-2.32.56-4.42-.05-6.33-1.41-2.4-1.71-4.87-3.33-7.28-5.02-2.09-1.46-4.2-1.74-6.53-.72-1.02.44-2.08.8-3.11,1.23-2.74,1.13-2.73,1.14-2.33,4.07.06.45.12,1.01-.66.88h-.01c-.17-.17-.35-.32-.57-.41-.16-.02-.29-.1-.39-.22-.19-.04-.32-.15-.39-.34l-.07-.05c-.18-.1-.34-.24-.48-.4l-.03-.02c-.16-.16-.33-.32-.55-.4-3.35-2.25-6.7-4.51-10.05-6.76Z"/>
  <path class="cls-16" d="M241.94,44.36c-.12.1-.23.22-.36.31-.7.43-1.59-.71-2.2.21-.65.99-1.45,1.89-1.74,3.1-.39,1.7-.63,3.43-1.22,5.09-.58,1.64-1.46,2.96-2.99,3.85-2.59,1.51-4.85,3.61-7.87,4.36-.72.18-.87.86-.88,1.54,0,.72-.01,1.43-.03,2.15-.02.56-.33.86-.88.94-.03-.27-.06-.54-.09-.81-.33-.48-.02-1.12-.4-1.58-.1-.12-.12-.25-.06-.39-.37-.45-.05-1.08-.41-1.53-2.24-8.4-4.17-16.91-7.25-25.05-2.48-6.54-4.76-13.23-8.99-18.97-.16-.21-.18-.42.13-.82,2.35,1.67,4.92,3.03,7.4,4.54,9.39,5.75,17.79,12.72,25.51,20.54.16.17.29.38.43.56.16.17.3.35.49.49h0c.15.17.31.33.48.48h0c.15.17.31.33.47.48h0c.16.15.29.34.47.49h0Z"/>
  <path class="cls-36" d="M239.52,183.91c-.89,2.13-1.64,4.32-2.7,6.36-1.78,3.44-2.62,7.13-3.56,10.84-.8,3.14-1.98,6.19-3.11,9.24-.85,2.27-1.03,4.63-1.11,7-.06,1.62.61,2.38,2.24,2.48,1.65.11,3.34.28,4.99-.18,1.01-.29,2.06-.55,2.74.64-.44.04-.87.08-1.31.12-.44.37-1.06.06-1.51.39-.46.03-.91.06-1.37.1-1.09.53-2.31-.09-3.41.39-6.44.24-12.89.2-19.33.01-.78-.02-1.6.12-2.31-.38-1.11-1.82-1.02-3.72-.54-5.73,1.18-4.99,3.36-9.63,4.89-14.49.71-2.25.96-4.74,2.95-6.42.36-.33.77-.59,1.22-.78,5.85-2.16,11.27-5.19,16.77-8.07,1.5-.48,2.56-2.28,4.48-1.49Z"/>
  <path class="cls-8" d="M213.12,247.69c-1.6-.76-3.28-.51-4.94-.3-4.21.52-8.41.56-12.61-.02-2.2-.3-4.42-.15-6.65-.54-4.61-.81-9.23-1.51-13.77-2.65-.14-.03-.24-.2-.36-.3.89-.94,2.07-.71,3.16-.73,2.21-.05,4.12-.83,6.09-1.86,8.84-4.62,17.58-9.57,27.72-10.87,4.73-.61,9.47-1.26,14.25-1.41,2.98-.57,6.04.05,9.03-.66,1.13-.27,2.39.07,3.25,1.1-.34.75-.96,1.27-1.57,1.77-6.89,5.64-14.05,10.91-21.67,15.53-.6.37-1.28.62-1.91.93Z"/>
  <path class="cls-4" d="M120.48,19.92c-5.28-2.03-10.55-4.07-16-5.6-6.94-1.94-13.93-3.48-21.21-3.06-.38.02-.77,0-1.19,0,.04-1.08.88-.89,1.39-1.11,7.75-3.24,15.8-5.5,24-7.25C119.88.25,132.42-.48,145.07.29c1.44.49,2.98-.14,4.42.37.27,0,.54.02.81.03.49.62.16,1.02-.39,1.32-.58.31-1.23.38-1.86.32-9.31-.88-15.3,5.03-21.41,10.58-1.34,1.21-2.32,2.91-3.83,3.88-1.27.81-.64,2.8-2.32,3.13Z"/>
  <path class="cls-46" d="M80.27,61.14c-.15.02-.29.03-.44.03-.42.38-1.08,0-1.48.44-.15.02-.3.03-.44.03-.58.46-1.39-.09-1.95.46h0c-.34.27-.75.19-1.14.23-4.4.46-4.56.28-4.69-4.15-.07-2.32-.73-4.57-1.36-6.8-2.06-7.32-4.66-14.43-8.66-20.95-1.42-2.32-1.69-4.62.33-6.79,2.75-2.31,5.95-3.91,9.01-5.75.61-.37,1.31-.59,2.05-.49.8-.37,1.71.06,2.51-.34,1.38-.23,2.76-.37,4.16-.12.76-.27,1.53-.27,2.29,0,.42-.18.84-.15,1.25.02-.91.74-2.05.73-3.12.97-.31.07-.64,0-.95.06-2.89.55-3.77,1.74-3.62,4.67.04.82.29,1.56.49,2.33,1.17,4.62,2.16,9.29,3.6,13.83,1.32,4.17,2.18,8.46,3.69,12.56.56,1.53.1,2.61-.94,3.64-.84.84-1.98,1.65-1.43,3.02.56,1.37,2.08,1.27,3.27,1.59.6.16,1.27.05,1.91.06.16.11.21.21.16.32-.06.1-.11.15-.17.15-.15.02-.3.03-.45.03-.58.46-1.39-.08-1.95.46h0c-.56.5-1.38-.06-1.92.47Z"/>
  <path class="cls-6" d="M120.48,19.92c.38-.25.48-.57.33-1.02-.28-.81.15-1.38.73-1.85,1.84-1.53,3.5-3.21,4.92-5.15.84-1.15,2.23-1.74,3.25-2.77,3.17-3.21,7.42-4.81,11.15-7.2.57-.36,1.24-.24,1.87-.24,1.99-.02,3.98-.01,5.97-.03.72,0,1.49.06,1.61-.96,2.46-.29,4.85.33,7.26.6.48.24,1.05.05,1.52.3.6.04,1.21.08,1.81.12.6.41,1.37-.03,1.98.38.15-.08.28-.06.4.05-.32.63-.84.94-1.54.94-.72,0-1.44.05-2.16,0-1.66-.13-2.61.49-3.2,2.15-1.37,3.78-3.46,7.17-6.42,9.94-1.56,1.46-3.15,2.86-4.55,4.51-2.04,2.38-4.97,2.57-7.74,1.9-2.63-.64-5.05.46-7.59.3-1.16-.07-.61,1.56-1.49,1.92-2.78-1.12-5.55-2.28-8.1-3.89Z"/>
  <path class="cls-24" d="M60.44,23.65c.48.32.29.64,0,.96-1.22,1.31-.98,2.78-.37,4.22.34.8.89,1.5,1.31,2.26,2.65,4.8,4.88,9.78,6.51,15.03.94,3.03,1.93,6.03,2.53,9.15.28,1.46.75,2.83.33,4.41-.4,1.53.27,2.22,1.86,2.37,1.11.1,2.23.04,3.34.05-2.77,1.26-5.79,1.59-8.69,2.38-1.45.4-2.88.92-4.42.97-2.45.09-2.97-.33-3.85-2.63-.99-2.55-1.15-5.26-1.72-7.9-1.24-5.72-3.28-11.12-6.06-16.25-.73-1.34-1.09-2.84-1.85-4.11-.58-.97.61-1.92-.29-2.7,2.23-2.34,4.87-4.13,7.62-5.79.18-.11.36-.23.53-.36.24-.29.5-.56.91-.59.2-.1.36-.27.56-.38l.06-.04c.2-.33.67-.21.87-.54h-.02c.16-.12.34-.24.52-.35.06-.14.16-.2.31-.17Z"/>
  <path class="cls-39" d="M6,171.93c1.64,1.08,3.25-.02,4.83-.19,1.67-.18,3.27-.4,4.93.03.6.16,1.26.16,1.89.17,3.46.04,6.93.04,10.39.1,1.14.02,1.68.74,1.84,1.81.02.1.03.2.05.3.12.51.06,1.01,0,1.52-.03.2-.07.39-.13.58-.11.37-.22.75-.29,1.14-.05.29-.12.58-.21.86-.15.48-.25.97-.33,1.47-.03.21-.08.42-.13.63-.13.43-.15.88-.17,1.32-.94,4.96-2.26,9.85-2.61,14.92-.02.35-.36.95.49.69-.14,4.38-.27,8.75.06,13.11-.88.33-1.03-.39-1.3-.79-7.04-10-13.29-20.43-17.51-31.97-.68-1.87-1.41-3.72-1.78-5.68Z"/>
  <path class="cls-31" d="M93.85,198.21c5.17,3.28,10.61,6.04,16.17,8.59.35.16.67.41,1.01.61,4.66,2.42,9.39,4.74,14.51,5.91,8.93,2.05,17.72,4.68,26.73,6.46,6.63,1.31,13.26,2.6,19.82,4.21.75.18,1.86-.02,1.66,1.36-1.81,1-3.75.66-5.62.42-5.17-.66-10.16-.17-15.09,1.57-3.83,1.35-7.96,1.65-11.79,3.11-1.6.61-3.27-.4-4.89-.75-5.19-2.13-10.04-4.91-14.65-8.06-7.58-5.18-14.81-10.84-21.55-17.09-1.52-1.41-3.29-2.53-5-3.7-.84-.57-1.85-1.02-2.07-2.19.13-.37.32-.64.78-.45Z"/>
  <path class="cls-28" d="M157.96,111.87v28.76c.81.07.82-.55,1.02-.91.5-.87,1.14-.96,2.15-.98,3.29-.09,6.5.74,9.78.58.79-.04,1.6.07,2.37-.22,1.2-.45,1.84,0,1.98,1.25.1.89.66,1.42,1.39,1.82.03,9.34.06,18.68.09,28.02,0,1.25,0,2.5,0,3.86-1.11-.13-1.3-1.04-1.8-1.58-5.49-6.01-10.5-12.45-16.2-18.27-.79-.8-1.08-1.68-1.09-2.78-.04-12.54-.13-25.07-.17-37.61,0-.65-.35-1.45.47-1.93Z"/>
  <path class="cls-11" d="M93.26,198.81c4.74,2.83,8.62,6.74,12.88,10.18,8.4,6.78,16.75,13.68,26.66,18.29,1.08.5,2.09,1.15,3.13,1.73.06.3-.03.54-.26.72-1.25.7-2.51.26-3.72-.09-3.37-.97-6.77-1.02-10.2-.52-2.15.31-4.31.16-6.46.2-1.64.03-2.57.55-2.33,2.43.1.76.32,1.85-1,2.04h0c-.16-.12-.29-.27-.37-.45-.21-.28-.42-.57-.63-.85-.1-.23-.27-.41-.43-.6v-.02c-.18-.13-.32-.29-.43-.48l-.05-.06c-.17-.07-.29-.2-.35-.38-.23-.28-.45-.57-.68-.85-.08-.25-.25-.44-.45-.6h0c-.15-.15-.29-.32-.4-.5l-.05-.07c-.17-.06-.28-.18-.32-.36-.08-.14-.15-.28-.23-.41-.09-.22-.26-.39-.39-.58l-.04-.05c-.16-.09-.27-.22-.33-.39-.22-.33-.43-.66-.65-.98-.15-.16-.28-.32-.41-.5l-.04-.06c-.17-.08-.28-.21-.34-.38-.3-.26-.6-.52-.67-.94-.13-.17-.26-.35-.38-.54-1.82-2.11-3.44-4.36-5.02-6.66-3.19-4.66-6.42-9.29-9.63-13.93-.86-1.24-1.81-2.42-2.29-3.88,2.24-2.26,4.03-2.4,5.86-.44Z"/>
  <path class="cls-15" d="M50.57,147.96c.68.11.91.55.91,1.18,0,1.04.04,2.07,0,3.11-.26,6.59,1.04,12.93,3.09,19.15.97,2.94,2.1,5.83,2.83,8.86.21.87.35,1.71.32,2.58-.18,5.92-.68,5.29-5.37,5.94-2.42.34-4.69.02-7.01-.43-.79-.15-1.58-.18-2.36.09-2.06.71-4.19.89-6.35.75.85-4.45,2.04-8.81,3.28-13.16,2.42-8.49,5.79-16.63,9.22-24.75.26-.26.15-.69.41-.95.05-.16.09-.32.14-.48.09-.2.26-.37.32-.59-.03-.15.01-.27.13-.36.14-.21.31-.39.34-.66-.04-.12-.01-.21.09-.28Z"/>
  <path class="cls-59" d="M229.43,129.14v4.03c1.06-.08,1.33-.69,1.57-1.25.52-1.21,1.34-2.27,2.4-2.91,1.63-.98,2.46-2.41,3.04-4.09.72-2.07,2.24-3.21,4.26-3.81,1.14-.34,2.28-.67,3.43-1.01,1.3-.38,2.55-.8,3.68-1.63,2.46-1.78,5.3-2.89,7.98-4.29,1.6-.83,3.41-.69,5.08-1.17.75-.21,1.17.26,1.22,1.05.04.68-.19,1.51.84,1.71-2.99,5.58-6.83,10.6-10.64,15.62-1.93,2.54-3.75,5.18-6.02,7.44-3.54-1.49-6.72-.32-9.83,1.33-1.63.87-3.27,1.69-5.13.54-1.48-.91-2.02,1.37-3.34,1.01.49-4.19.97-8.39,1.46-12.58Z"/>
  <path class="cls-19" d="M111.96,233.78c.82-.86.33-1.76.13-2.68-.38-1.7.14-2.58,1.86-2.51,4.78.19,9.52-.81,14.29-.5,1.64.11,3.28.59,4.88,1.04.94.27,1.86.37,2.82.35.08,0,.16.01.25.01.26.02.5.07.74.16.17.07.33.14.49.23.39.11.79.08,1.18.16,6.41,2.54,12.48,5.85,19.02,8.06.54.4,1.47.44,1.34,1.45-1.84-.07-3.64.03-5.4.73-1.12.45-2.39.42-3.53.04-4.01-1.37-8-.57-12.02-.13-3.51.38-6.76,1.6-10.04,2.76-.92.33-1.66.88-2.27,1.65-.74.94-1.63,1.71-2.76,2.16,0,0,.02.01.02.01-.12-.21-.31-.35-.48-.52h0c-.15-.16-.32-.32-.47-.49h0c-.17-.15-.32-.31-.46-.48h-.01c-.17-.15-.32-.31-.45-.48l-.02-.02c-.18-.12-.32-.28-.42-.46l-.05-.07c-.19-.08-.32-.22-.38-.41l-.1-.1c-.18-.04-.28-.14-.32-.32l-.69-.94c-.13-.2-.3-.36-.46-.52-2.52-2.49-4.63-5.32-6.7-8.18Z"/>
  <path class="cls-33" d="M31.87,48.75c2.22.6,2.7,2.58,3.21,4.36,1.67,5.81,3.21,11.65,5.03,17.41.81,2.57.26,3.83-2.14,5.03-4.55,2.28-9.11,4.55-13.67,6.8-.35.17-.76.22-1.13.32.01-1.72,1.61-2.03,2.61-2.81,3.05-2.35,3.11-2.43,1.47-5.86-.93-1.95-1.72-3.95-2.34-6.02-.36-1.2-.6-2.75-2.1-2.91-1.51-.17-2.05,1.34-2.69,2.39-1.53,2.53-2.92,5.13-4.31,7.74-.38.71-.73,1.49-1.56,1.73-.72.2-1.13-.06-.64-.87l.03-.06c.17-.2.35-.4.37-.69-.05-.13,0-.22.13-.27.14-.2.31-.38.36-.62-.04-.15,0-.26.14-.34.12-.2.29-.37.34-.6-.04-.16.02-.28.16-.36.11-.18.22-.37.33-.55-.04-.17.01-.3.16-.4.11-.19.22-.38.32-.56-.04-.18.02-.31.18-.4.08-.18.19-.34.32-.48h0c.32-.24.21-.68.49-.93l.02-.03c.2-.18.38-.37.4-.65-.04-.14.01-.24.15-.3.12-.19.29-.35.35-.58-.03-.17.03-.3.19-.39.08-.17.19-.33.33-.47v-.02c.32-.23.21-.67.5-.91l.02-.04c.19-.18.36-.36.39-.64-.03-.15.03-.26.17-.32.12-.18.23-.36.34-.55.07-.14.13-.28.2-.42.06-.18.17-.32.33-.43l.02-.04c.17-.18.33-.36.39-.61,2.24-4.22,5.45-7.74,8.33-11.48.86-1.12,1.62-2.34,2.82-3.17Z"/>
  <path class="cls-60" d="M176.72,52.97c.66-.57.1-.94-.21-1.38-.95-1.35-.92-2.21.37-2.95,2.63-1.51,5.46-2.57,8.4-3.29,1.24-.31,2.36.28,3.37.93,2.2,1.42,4.53,2.71,6.51,4.4,2.91,2.48,6.08,3.66,9.64,2.19,2.89-1.2,5.01-.74,6.9,1.58,0,.15.02.31.03.46.29.26.18.71.44.98,0,.16.01.31.03.46.3.26.19.7.44.98.03.47.05.94.08,1.4.24.28.15.71.43.97h0c1.31,2.94,2.14,5.97,1.85,9.22-1.23,1.16-1.78-.06-2.06-.81-.7-1.88-2.1-2.95-3.74-3.86-2.69-1.49-4.6-3.93-7.02-5.76-1.88-1.42-3.73-2.02-5.98-1.02-1.09.48-2.31.62-3.44,1.02-2.37.85-2.61,1.4-1.56,3.7q.68,1.5-.19,2.37c-.46-.39-.92-.78-1.37-1.17-.18-.07-.31-.19-.41-.35l-.05-.03c-.18-.14-.34-.3-.54-.41-.3-.21-.61-.42-.91-.64-.18-.08-.32-.2-.42-.37l-.05-.03c-.17-.14-.34-.27-.51-.4h0c-.13-.22-.3-.37-.54-.45-3.16-2.58-6.32-5.17-9.49-7.75Z"/>
  <path class="cls-22" d="M217.5,194.5c-1.01,1.41-1.64,2.95-2.23,4.62-1.23,3.43-1.98,7.02-3.56,10.33-1.28,2.66-1.7,5.59-2.35,8.45-.31,1.38.86,1.87,1.6,2.58-.39.44-.84.31-1.2.43-1.1-.05-2.21-.1-3.31-.15-.62-.32-1.36.07-1.96-.34-2.91-.03-5.81-.18-8.64-.95-1.2-2.36-.37-4.74.27-6.96.89-3.12,2.28-6.09,3.48-9.12.66-1.67,1.93-2.89,3.31-4,4.16-1.74,8.49-3.06,12.6-4.93.63-.29,1.35-.56,2,.03Z"/>
  <path class="cls-29" d="M149.32,44.85c1.5.59,2.75,1.59,4.05,2.49,4.66,3.2,9.26,6.49,13.62,10.09.11.09.12.28.27.63-1.63.2-3.07-.21-4.51-.69-2.49-1.67-5.47-1.41-8.22-1.92-5.47-1.02-10.99-1.58-16.59-1.59-3.8,0-7.6-.75-11.39-1.2-1.12-.13-2.26-.75-2.09-1.91.39-2.69.45-5.62,3.21-7.31,5.2-.91,10.48-.83,15.72-.97,2.18-.06,3.83,1.85,5.92,2.38Z"/>
  <path class="cls-52" d="M13.6,76.07c.15.84.6.63.89.17.63-1,1.18-2.05,1.72-3.1,1.19-2.33,2.47-4.62,3.87-6.83.21-.33.4-.69.65-1,1.52-1.85,2.8-1.69,4.03.43.93,1.61.99,3.5,1.82,5.15.75,1.48,1.36,3.04,2.07,4.55.86,1.83.66,2.54-.95,3.83-1.48,1.18-3.22,2.01-4.53,3.41-2.26,1.75-4.86,2.97-7.18,4.62-2,1.42-3.94,2.92-5.87,4.44-.43.34-1.16.8-.37,1.52-1.48,1.41-2.96,2.83-4.63,4.43-.3-1.51.45-2.45.74-3.45,1.78-6.05,4.25-11.83,7.18-17.41.14-.27.37-.5.56-.75Z"/>
  <path class="cls-5" d="M127.8,43.9c-.84.63-1.68,1.24-1.47,2.49.16.98-.62,1.6-.93,2.4-.97,2.49-.54,3.05,2.1,3.26,2.6.21,5.24.3,7.77.99,1.09.3,2.18.42,3.3.4,6.71-.1,13.32.77,19.86,2.17,1.54.33,3.22.05,4.59,1.08.7.53.03.52-.25.67-1.35-.03-2.61-.5-3.92-.75-.27-.05-.54-.04-.79-.17-.7-.09-1.4-.18-2.1-.27-.27-.09-.56-.09-.83-.19-1.81-.26-3.62-.52-5.43-.78-.4-.13-.84,0-1.22-.22-.7-.09-1.4-.18-2.1-.26-.28-.07-.58-.07-.84-.21-1.47-.07-2.93-.14-4.4-.21-5.39-.21-10.77-.2-16.16,0-1.01.12-2.02.25-3.05.11-.17-.18-.38-.24-.62-.22-.29.01-.58-.06-.86.02.31-.03.6-.02.81.26-1.16.49-2.39.5-3.62.48-1.7-1.06-3.59-.68-5.28-.33-3.58.74-7.22.96-10.8,1.67-.23.05-.48.04-.71.04-1.67.04-1.93-.35-1.79-1.93.3-3.43,2.56-5.11,5.45-6.17,3.05-1.12,6.26-1.72,9.43-2.42.77-.17,1.55-.33,2.32-.5,2.71-1.13,5.57-1.64,8.46-2.02,1.08-.14,2.21-.35,3.09.62Z"/>
  <path class="cls-56" d="M217.5,194.5c-1.28.16-2.39.79-3.53,1.3-3.53,1.59-7.17,2.85-10.86,4.01-.63.2-1.1.99-1.92.55-.48-1.32.53-2.08,1.19-2.9,1.02-1.27,1.69-2.65,2.17-4.21,1.25-4.02,3.27-7.36,6.93-9.91,3.81-2.65,7.56-5.51,10.64-9.09,4.02-3.66,8.05-7.31,12.07-10.97.22-.13.41-.29.54-.51l-.03.03c.22-.12.39-.3.51-.51l-.03.03c.21-.13.38-.3.51-.51l-.03.03c.21-.13.38-.3.51-.51l-.03.03c.21-.13.38-.3.51-.5l-.03.03c.21-.13.37-.3.52-.49l-.02.02c.18-.14.34-.31.51-.48h0c.16-.16.32-.32.49-.48h0c.16-.16.32-.32.48-.48h0c.16-.16.32-.32.48-.48h0c.17-.15.33-.31.48-.49h-.01c.18-.14.35-.3.49-.49l-.02.02c.19-.14.36-.31.49-.51l-.02.02c.2-.14.37-.3.5-.51l-.03.03c.21-.13.38-.3.5-.52l-.03.03c.22-.13.39-.29.5-.53l-.04.04c.23-.12.42-.27.51-.53h-.02c.49-.19.68.12.82.5.02.19,0,.37-.05.55-.07.17-.17.32-.28.46-.06.07-.12.13-.17.2-.11.13-.23.25-.36.36-.06.06-.12.11-.18.17-.11.12-.23.23-.35.34-.05.06-.12.11-.17.17-.1.12-.22.22-.33.33,0,0-.17.16-.17.16-.1.12-.21.22-.33.32,0,0-.17.16-.16.16-.1.11-.21.22-.32.32,0,0-.17.16-.16.16-.1.11-.21.22-.32.32,0,0-.16.16-.16.16-.1.11-.21.22-.32.32,0,0-.16.16-.16.16-.1.11-.21.22-.32.32,0,0-.16.16-.16.16-.1.11-.21.22-.32.32,0,0-.16.16-.16.16-.1.11-.21.22-.32.32,0,0-.16.16-.16.16-.1.11-.21.22-.32.32,0,0-.17.16-.16.16-.1.12-.21.22-.33.33,0,0-.17.16-.16.17-.1.12-.22.23-.33.34,0,0-.17.17-.17.17-.11.13-.23.24-.34.36-.06.07-.12.12-.18.19-.12.14-.24.27-.36.4-.06.07-.12.14-.19.21-.12.16-.25.3-.39.45-.07.08-.14.15-.2.24-.14.17-.29.33-.44.49-2.27,2.24-4.38,4.66-6.95,6.58-2.15,1.61-2.48,4.1-2.73,6.42-.49,4.61-2.94,8.58-3.91,13.01-.25,1.15-1.21,1.84-2.15,2.47-.32.16-.64.33-.96.49Z"/>
  <path class="cls-30" d="M227.97,141.72c.26-.29.53-.58.78-.88,1.37-1.61,1.39-1.65,3.21-.48.86.55,1.65.44,2.47.06.94-.43,1.9-.84,2.77-1.38,1.81-1.12,3.9-1.23,5.87-1.76,1.58-.43,2.22.88,3.2,1.56-1.18,1.92-2.83,3.45-4.28,5.14-5.56,6.5-11.42,12.71-17.73,18.5-1.45,1.33-2.83,2.74-4.22,4.08-.62-.51-.35-.9-.19-1.21,3.77-7.28,6.46-14.91,7.78-23.01.04-.22.22-.41.34-.62Z"/>
  <path class="cls-25" d="M222.13,174.25c.78.82-.17,1.12-.53,1.43-2.29,1.97-4.63,3.89-6.95,5.81-1.65,1.37-3.36,2.67-5.08,3.95-2.14,1.6-3.23,4.11-3.84,6.49-.84,3.24-2.68,5.71-4.59,8.24-.32.74-.97,1.06-1.67,1.25-4.22,1.19-8.37,2.66-12.73,3.35-8.54,1.59-17.02,3.46-25.5,5.29-2.99.65-6,1.6-9.15,1.23-.27-.02-.53-.03-.8-.05-.26-.27-.81-.4-.47-.96.12-.09.24-.1.37-.03.61-.44,1.41.04,2.02-.42.11-.1.24-.12.38-.06.45-.36,1.09-.03,1.54-.41.11-.1.24-.12.38-.06.45-.36,1.09-.03,1.53-.42.11-.1.24-.12.38-.07.46-.34,1.08-.04,1.54-.38,12.31-2.48,23.8-7.11,34.59-13.48,2.67-1.58,5.29-3.25,7.93-4.88.28-.04.47-.21.63-.42h0c.16-.14.33-.26.5-.39l.88-.59c.22-.1.38-.27.58-.41l.03-.02c.1-.17.24-.29.44-.34.09-.14.21-.21.38-.21.23-.09.39-.26.58-.4l.03-.02c.11-.17.25-.29.44-.37.07-.14.18-.2.33-.2.27-.05.46-.22.6-.44h-.01c.18-.13.35-.27.53-.4l.04-.02c.1-.18.24-.3.43-.37.06-.14.17-.21.33-.2.27-.05.46-.22.61-.44h-.01c.17-.13.35-.27.53-.4l.04-.03c.09-.17.23-.3.42-.36.07-.14.18-.21.34-.21.26-.06.45-.23.6-.44h-.01c.16-.13.33-.25.51-.36.27-.21.55-.42.82-.63.26-.06.45-.23.59-.46h-.02c.2-.1.35-.28.53-.42h.02c.12-.18.27-.31.45-.39.28-.22.55-.44.83-.65.26-.07.45-.23.59-.45h-.01c.2-.1.34-.28.52-.42h.02c.12-.18.28-.3.46-.39.27-.22.55-.43.82-.65.27-.06.45-.23.59-.46h-.02c.21-.09.36-.27.53-.42h0c.15-.17.31-.31.49-.43l.04-.03c.11-.19.26-.32.45-.41l.07-.06c.06-.19.19-.31.39-.35.06-.14.16-.22.32-.23.29-.05.48-.22.58-.49l-.03.02c.25-.05.39-.26.56-.42h0c.15-.16.32-.3.5-.42l.04-.03c.09-.18.24-.31.43-.38.06-.14.17-.21.32-.21Z"/>
  <path class="cls-40" d="M218.48,82.18c.79,2.68.8,5.49,1.25,8.23.45,2.75.74,5.52,1.05,8.29.07.59.35,1.23-.3,1.99-.77-1.35-1.52-2.61-2.22-3.9-3.89-7.12-9.04-13.3-14.39-19.34-.42-.47-.95-.87-1.17-1.5-.61-4.16.17-5.36,4.19-6.49.38-.11.8-.16,1.12-.38,2.26-1.55,4.35-1.68,6.25.6.13.15.43.17.65.26.86.6,1.12,1.55,1.29,2.47.7,3.79,1.46,7.58,1.97,11.33.11-.44-.33-1.13.3-1.55Z"/>
  <path class="cls-14" d="M186.8,204.11c4.87-.98,9.58-2.53,14.34-3.92.66-.13,1.32-.25,1.98-.38-2.62,2.14-3.44,5.29-4.62,8.23-1.1,2.72-2.17,5.44-2.53,8.4-.12,1.02.3,2.04-.12,3.02-.47-.04-.93-.08-1.4-.12-.61-.37-1.37.04-1.98-.35-3.73-.36-7.44-.86-11.06-1.9-2.26-2.42-2.26-2.56-.44-5.5.96-1.55,2-3.08,2.74-4.75.62-1.4,1.61-2.33,3.09-2.72Z"/>
  <path class="cls-35" d="M214.61,70.25c-.92.01-1.4-.68-1.96-1.23-.8-.77-1.63-.9-2.57-.24-1.25.89-2.61,1.44-4.18,1.59-1.48.14-2.3.99-2.59,2.6-.18.98.14,2.11-.6,2.98-3.7-3.99-7.69-7.7-11.69-11.38.35-.27.53-.57.27-1.01-.41-.68-.86-1.34-1.19-2.06-.77-1.67-.46-2.61,1.19-3.19,2.32-.81,4.69-1.5,7.05-2.19.9-.26,1.74.15,2.45.64,1.44.98,2.97,1.87,4.16,3.16,1.86,2.01,4.04,3.59,6.43,4.87.93.5,1.43,1.23,1.72,2.16.29.91.54,1.85,1.48,2.35.26.31.31.63.02.95Z"/>
  <path class="cls-20" d="M186.8,204.11c-1.18.74-1.93,1.8-2.56,3.05-.93,1.84-2.03,3.6-3.12,5.35-1.18,1.9-1.22,1.88.19,3.6.26.32.54.61.1.98-.45-.06-.9-.11-1.35-.17-.46-.28-1.05,0-1.48-.35-4.06-.43-7.98-1.54-11.96-2.37-4.83-1-9.68-1.92-14.52-2.88,1.37.03,2.58-.52,3.85-.96,2.16-.76,4.5-.85,6.74-1.28,3.42-.66,6.73-1.74,10.15-2.36,4.66-.84,9.31-1.73,13.97-2.61Z"/>
  <path class="cls-7" d="M127.8,43.9c-3.15-.27-6.12.81-9.18,1.22-.79.1-1.57.21-2.37.19.77-.86,1.88-1.15,2.86-1.65.94-.47,1.56-1.06,1.46-2.19-.08-.83.17-1.63.69-2.22.76-.85,1.16-1.86,1.64-2.85,1.06-2.19,2.51-2.55,4.8-1.97,3.6.9,6.72,2.8,10.01,4.35,1,.47,2.01.93,2.83,1.74.5.49,1.09.67,1.63-.01,1.76,1.02,3.52,2.05,5.27,3.07.19.05.33.16.42.33l.04.02c.2.15.38.33.63.41.12,0,.21.04.28.13.25.04.37.25.53.41,0,0-.02,0-.02,0-.22.29-.51.37-.83.24-.44-.18-.86-.42-1.29-.61-1.86-.83-3.67-1.3-5.86-1.24-4.52.12-9.02.65-13.54.66Z"/>
  <path class="cls-44" d="M173.84,225.17c-3.24-1.05-6.58-1.63-9.9-2.33-2.79-.59-5.58-1.28-8.37-1.79-3.43-.63-6.86-1.3-10.25-2.07-4.48-1.02-8.93-2.22-13.38-3.37-1.38-.36-2.76-.73-4.16-1.01-3.58-.72-7.12-1.64-10.33-3.46-2.08-1.18-4.27-2.09-6.47-3.01-.2-.08-.97-.17-.2-.69.17-.12.06.23.25-.02.15.04.31.08.46.12.17.13.36.23.57.29.29.08.58.17.88.25.18.09.35.17.52.27l.91.2c.17.09.34.18.52.27.15.05.31.1.46.15.16.15.35.24.57.27.3.08.6.16.9.24.13.11.27.18.44.2,8.38,2.86,16.97,5,25.57,7.05,8.53,2.03,17.09,3.92,25.67,5.71,7.35,1.53,14.72,2.82,22.14,3.92,1.18.18,2.36.33,3.55.5.22,0,.42.06.62.14.72.07,1.45.15,2.17.22.63.26,1.34-.02,1.96.32.73.04,1.47.07,2.2.11,1.11.46,2.33-.09,3.44.34.63.04,1.27.09,1.9.13,1.19.5,2.51-.14,3.71.4q-.94,1.28-6.85,1.16c-.29,0-.58-.03-.86-.1-4.05-.75-8.17-.96-12.27-1.14-4.88-.22-9.59-1.35-14.36-2.13-.78-.13-1.55-.4-2.02-1.14Z"/>
  <path class="cls-45" d="M276.97,154.24c.6.35.41.99.55,1.51-.44,4.45-1.28,8.84-2.47,13.14-3.73,13.39-9.11,26.07-16.76,37.7-2.37,3.6-4.9,7.1-7.72,10.37-.12.21-.33.34-.42.57,0,0,0,.01,0,.01-.91-.87,0-1.46.39-2.03,1.24-1.86,2.53-3.68,3.86-5.48,6.07-8.21,10.37-17.35,14.41-26.66,2.49-5.73,4.33-11.66,5.99-17.65,1.04-3.76,1.6-7.63,2.17-11.48Z"/>
  <path class="cls-55" d="M72.78,73.59c.3.09.59.19,1.42.45-2.75.63-4.11,2.57-5.96,3.84-5.72-.59-10.76,1.93-15.91,3.7-7.86,2.69-15.52,5.91-22.88,9.8-1.06.56-2.13,1.11-3.39.97-2.6.89-4.82,2.56-7.34,3.61-.57.24-1.16,1.03-1.84.14,0,0,0,.02,0,.02.24-.06.36-.31.58-.4h0c.22-.35.69-.24.94-.53l-.03.02c.17-.16.32-.35.57-.4.05-.1.13-.14.25-.12.26-.09.47-.27.7-.41l.18-.08c.31-.04.53-.24.74-.45l-.03.02c.17-.16.32-.35.58-.37.08-.1.19-.15.32-.14.2-.12.38-.27.58-.38,7.3-3.96,14.76-7.61,22.53-10.57,7.39-2.81,14.92-5.21,22.57-7.22,1.23-.32,2.45-.72,3.68-1.08.38-.14.81-.13,1.17-.34.2-.03.4-.05.6-.08Z"/>
  <path class="cls-50" d="M85.56,212.69c.01-.5-.1-1.03.41-1.38.11.11.27.2.34.33,3.89,7.49,9.32,13.93,14.3,20.65,6.61,8.92,13.64,17.52,21.84,25.07.35.32.66.69.99,1.04.2.06.32.18.39.37l.06.06c.2.09.35.23.47.41,0,0,0,0,0,0-.32.42-.67.33-1.02.05-.93-.75-1.89-1.47-2.76-2.28-4.97-4.64-9.42-9.75-13.85-14.89-6.21-7.2-11.17-15.33-17.05-22.77-1.63-2.06-2.86-4.4-4.12-6.7Z"/>
  <path class="cls-57" d="M242.88,156.05c0-.41-.15-.76-.51-.99,1.91-2.23,3.78-4.48,5.72-6.68,7.44-8.42,14.2-17.33,20.21-26.83.22-.16.41-.33.41-.63.03-.11.08-.21.16-.3.14-.18.29-.36.37-.58.02-.13.07-.25.15-.36.09-.22.26-.39.37-.6,0-.11.05-.21.13-.3.04-.25.22-.42.4-.58v.03c.26-.28.18-.73.48-.99v.03c.25-.28.17-.73.49-.99v.03c.24-.29.17-.73.47-1,0,0,0,.03,0,.03.26.05,1.03-.51.68.29-.89,2.03-1.95,4-3,5.95-2.75,5.12-6.1,9.86-9.52,14.54-2.02,2.75-4.25,5.34-6.38,8.01-2.61,4.35-6.15,7.94-9.57,11.63-.26.29-.6.52-1.03.26Z"/>
  <path class="cls-2" d="M43.27,137.82c.03-.12.07-.24.12-.35.09-.22.27-.39.37-.6.03-.12.07-.24.1-.35.56-.44.89-.39.88.41h0c-.28.34-.26.8-.45,1.18l-.04.11c-.21.35-.16.8-.46,1.11v-.02c-.27.28-.21.71-.44,1v-.03c-.51.38-.06,1.11-.54,1.51-3.41,9.21-7.07,18.33-10.03,27.7-.46.43-.07,1.12-.49,1.57.05.13.02.24-.08.33-.19.37-.17.81-.38,1.17.05.11.03.2-.06.27-.24.39-.25.85-.42,1.26l-.03.15c-.27.39-.27.86-.45,1.28l-.04.18c-.4.46-.05,1.15-.47,1.61.05.12.03.23-.06.32-.2.33-.16.74-.37,1.07v.03c-.99.13-.69-.62-.76-1.12,0-.22,0-.44.02-.66.15-.39.52-.69.46-1.16,0-.31,0-.62.06-.93.12-.39.37-.72.57-1.08.02-.14.05-.27.09-.4.44-.4.06-1.05.44-1.46.01-.15.03-.3.07-.44.38-.44.06-1.05.37-1.5.01-.15.04-.29.08-.43.29-.28.2-.7.39-1.02.92-3.96,2.48-7.72,3.9-11.51,2.04-5.43,3.88-10.94,6.26-16.25.28-.27.19-.7.45-.98h0c.32-.24.21-.7.49-.96.03-.13.06-.26.1-.39.06-.23.24-.4.33-.61Z"/>
  <path class="cls-9" d="M203.09,229.02h6.85c-1.22-.82-2.55-.04-3.45-.91,4.94.2,9.88.45,14.83.37,5.75-.09,11.48-.47,17.17-1.32.84-.13,1.66-.4,2.66-.32-.96.87-1.92,1.75-2.88,2.62-4.21-.83-8.41.43-12.62.06-6.71.19-13.39,1.04-20.11.77-.95-.04-2.16.14-2.46-1.28Z"/>
  <path class="cls-32" d="M93.26,198.81c-1.61-1.07-3.2-.95-4.76.12-.34.23-.7.33-1.1.32-2.55-3.06-4.18-6.71-6.47-9.83.13-.35.27-.4.43-.24,3.16,3.07,7.11,5.05,10.62,7.62.63.46,1.44.7,1.88,1.42-.2.2-.4.4-.59.6Z"/>
  <path class="cls-10" d="M214.61,70.25c0-.32-.01-.63-.02-.95.23-2.59-.58-5.02-1.13-7.48-.16-.7-.33-1.38-.3-2.11.33.16.66.32.99.48.91,2.31,1.11,4.78,1.66,7.18,1.11,4.9,1.98,9.84,2.68,14.82-.06.63-.12,1.26-.22,2.21-.78-1.59-.97-3.04-1.25-4.46-.49-2.5-.95-5.01-1.47-7.51-.16-.77-.41-1.54-.94-2.17Z"/>
  <path class="cls-37" d="M29.42,177.22c.1.53-.03,1.13.53,1.5-.05.55-.04,1.12-.17,1.65-1.42,5.57-2.51,11.2-3.24,16.9-.22.32-.44.64-.79,1.14-.36-3.13,0-6.04.6-8.94.57-2.78,1.12-5.57,1.68-8.35.21-.31.16-.71.33-1.04.06-.15.09-.3.1-.46.43-.4.08-1.02.4-1.46.04-.29.08-.58.13-.87.1-.33.24-.35.43-.07Z"/>
  <path class="cls-24" d="M84.59,60.18c0-.16,0-.31,0-.47,3.89-.58,7.78-1.19,11.67-1.71.88-.12,1.88-.85,2.72.17-4.32.96-8.63,1.91-12.95,2.87.27-1.56-1.01-.5-1.45-.85Z"/>
  <path class="cls-34" d="M44.74,136.92c-.22-.3-.5-.46-.88-.41.26-1.84,1.47-3.27,2.17-4.93.33-.8.72-1.57,1.08-2.35.86-.91.77-2.67,2.49-2.81-1.62,3.5-3.24,7-4.86,10.5Z"/>
  <path class="cls-29" d="M124.97,54.29c.21-.09.43-.27.64-.27,4.96-.02,9.93-.03,14.89-.02.21,0,.42.19.63.3-5.39,0-10.77,0-16.16,0Z"/>
  <path class="cls-20" d="M150.82,210.31c.16.32.31.64.47.96-1.08.13-2.13.14-3.4-.61,1.15-.54,2.03-.48,2.92-.36Z"/>
  <path class="cls-6" d="M149.49.66c-1.49.08-3,.34-4.42-.37,1.49-.11,2.98-.09,4.42.37Z"/>
  <path class="cls-9" d="M204.59,227.98c-1.17.08-2.35.38-3.44-.34,1.17-.07,2.32-.09,3.44.34Z"/>
  <path class="cls-54" d="M231.39,221.27c1.07-.75,2.26-.35,3.41-.39-1.07.68-2.26.39-3.41.39Z"/>
  <path class="cls-58" d="M34.65,201.58c-.07,1.14.36,2.33-.33,3.41-.06-1.15-.16-2.31.33-3.41Z"/>
  <path class="cls-17" d="M121.25,54.47c-.54-.07-1.07-.15-1.61-.22.79-.29,1.58-.6,2.27.15-.22.02-.45.04-.67.06Z"/>
  <path class="cls-17" d="M74.01,17.08c-.76.67-1.65.36-2.51.34.78-.49,1.64-.42,2.51-.34Z"/>
  <path class="cls-20" d="M153.21,209.86c-.56.66-1.29.53-2.02.42.61-.41,1.3-.5,2.02-.42Z"/>
  <path class="cls-22" d="M192.46,218.99c.69-.06,1.4-.24,1.98.35-.69.07-1.38.1-1.98-.35Z"/>
  <path class="cls-9" d="M198.94,227.53c-.69.1-1.38.25-1.96-.32.69-.09,1.35-.05,1.96.32Z"/>
  <path class="cls-36" d="M204.48,220.42c.68-.06,1.38-.22,1.96.34-.69.09-1.37.13-1.96-.34Z"/>
  <path class="cls-17" d="M80.45,16.96c-.76,0-1.53,0-2.29,0,.76-.3,1.53-.31,2.29,0Z"/>
  <path class="cls-27" d="M162.87,2.1c-.69.04-1.41.23-1.98-.38.7-.09,1.38-.07,1.98.38Z"/>
  <path class="cls-51" d="M222.81,61.6c.51.41.58.94.41,1.53-.39-.44-.51-.96-.41-1.53Z"/>
  <path class="cls-20" d="M155.13,209.38c-.41.52-.95.54-1.54.41.44-.39.97-.49,1.54-.41Z"/>
  <path class="cls-34" d="M42.81,141.79c-.06-.59-.02-1.15.56-1.51.1.61-.13,1.09-.56,1.51Z"/>
  <path class="cls-14" d="M178.57,216.57c.55-.1,1.08-.13,1.48.35-.54.09-1.05.01-1.48-.35Z"/>
  <path class="cls-58" d="M35.1,197.68c.05.54.15,1.1-.28,1.55-.12-.55-.11-1.09.28-1.55Z"/>
  <path class="cls-54" d="M236.17,220.79c.42-.48.96-.46,1.51-.39-.42.46-.96.47-1.51.39Z"/>
  <path class="cls-24" d="M83.62,61.55c.4-.51.93-.52,1.49-.38-.43.37-.94.46-1.49.38Z"/>
  <path class="cls-27" d="M159.08,1.6c-.55.09-1.09.17-1.52-.3.55-.09,1.07-.06,1.52.3Z"/>
  <path class="cls-51" d="M223.27,63.51c.52.43.59.97.4,1.58-.43-.45-.48-1-.4-1.58Z"/>
  <path class="cls-20" d="M157.04,208.9c-.41.52-.95.54-1.53.42.45-.38.97-.48,1.53-.42Z"/>
  <path class="cls-29" d="M148.48,54.99c.44-.08.87-.15,1.22.22-.44.1-.86.11-1.22-.22Z"/>
  <path class="cls-24" d="M70.2,64.94c.37-.52.88-.56,1.44-.43-.41.38-.89.52-1.44.43Z"/>
  <path class="cls-20" d="M158.96,208.44c-.43.47-.97.49-1.54.38.45-.37.97-.46,1.54-.38Z"/>
  <path class="cls-37" d="M30.37,177.3c-.15-.62-.08-1.18.47-1.6.06.6-.07,1.14-.47,1.6Z"/>
  <path class="cls-37" d="M32.3,171.05c-.12-.61-.04-1.16.49-1.57.06.59-.11,1.11-.49,1.57Z"/>
  <path class="cls-48" d="M172.03,3.99c-.42.09-.79.03-1.07-.33.41-.06.78.01,1.07.33Z"/>
  <path class="cls-48" d="M173.93,4.48c-.41.09-.78.02-1.05-.34.4-.06.76.02,1.05.34Z"/>
  <path class="cls-48" d="M175.84,4.97c-.41.08-.77.01-1.04-.35.41-.06.75.04,1.04.35Z"/>
  <path class="cls-48" d="M177.7,5.48c-.39.07-.73,0-.98-.33.39-.07.71.07.98.33Z"/>
  <path class="cls-48" d="M179.28,5.9c-.44.1-.84.04-1.13-.35.43-.07.83-.01,1.13.35Z"/>
  <path class="cls-48" d="M181.05,6.45c-.4.06-.74-.02-.98-.37.4-.06.71.09.98.37Z"/>
  <path class="cls-48" d="M182.49,6.93c-.4.06-.75-.02-.99-.38.4-.06.73.08.99.38Z"/>
  <path class="cls-48" d="M183.95,7.4c-.4.07-.76,0-1.01-.37.4-.05.74.07,1.01.37Z"/>
  <path class="cls-48" d="M185.52,7.83c-.45.1-.85.05-1.15-.35.44-.07.84-.02,1.15.35Z"/>
  <path class="cls-48" d="M187.3,8.36c-.41.07-.76-.02-1.01-.37.4-.06.74.07,1.01.37Z"/>
  <path class="cls-29" d="M155.13,55.99c.32-.11.6-.09.83.19-.31.1-.6.07-.83-.19Z"/>
  <path class="cls-29" d="M158.05,56.45c.3-.1.57-.07.79.17-.3.1-.57.05-.79-.17Z"/>
  <path class="cls-46" d="M59.62,24.17c-.17.38-.48.53-.87.54.2-.33.46-.56.87-.54Z"/>
  <path class="cls-10" d="M213.56,57.29c-.37-.29-.4-.68-.31-1.1.33.3.38.68.31,1.1Z"/>
  <path class="cls-10" d="M214,59.2c-.33-.26-.39-.61-.32-1,.29.27.39.61.32,1Z"/>
  <path class="cls-37" d="M29.94,178.69c-.17-.46-.01-.8.37-1.07.06.42.08.82-.37,1.07Z"/>
  <path class="cls-24" d="M81.71,62.02c.29-.41.67-.47,1.12-.33-.3.36-.69.4-1.12.33Z"/>
  <path class="cls-9" d="M194.82,226.99c-.25.12-.47.14-.63-.14.25-.14.46-.1.63.14Z"/>
  <path class="cls-24" d="M77.85,62.98c.28-.42.67-.49,1.13-.36-.3.36-.69.43-1.13.36Z"/>
  <path class="cls-24" d="M75.92,63.44c.29-.41.68-.46,1.13-.33-.31.35-.7.39-1.13.33Z"/>
  <path class="cls-24" d="M74.02,63.94c.28-.42.67-.48,1.13-.36-.3.35-.69.43-1.13.36Z"/>
  <path class="cls-24" d="M72.11,64.41c.28-.4.66-.47,1.1-.34-.29.35-.68.4-1.1.34Z"/>
  <path class="cls-24" d="M68.77,65.35c.25-.38.6-.45,1.01-.33-.27.33-.62.39-1.01.33Z"/>
  <path class="cls-24" d="M66.87,65.9c.26-.39.62-.49,1.06-.37-.27.37-.64.43-1.06.37Z"/>
  <path class="cls-24" d="M65.44,66.35c.25-.36.59-.46,1-.34-.25.34-.61.4-1,.34Z"/>
  <path class="cls-52" d="M18.86,66.44c.02.4-.11.72-.49.91-.03-.41.16-.7.49-.91Z"/>
  <path class="cls-24" d="M64,66.81c.22-.36.54-.46.94-.35-.24.32-.56.42-.94.35Z"/>
  <path class="cls-52" d="M16.93,69.79c.02.4-.11.73-.49.92-.03-.41.14-.71.49-.92Z"/>
  <path class="cls-47" d="M72.18,73.66c-.32.36-.72.41-1.17.34.31-.38.73-.4,1.17-.34Z"/>
  <path class="cls-3" d="M18.4,95.19c-.19.39-.51.55-.94.53.22-.35.52-.55.94-.53Z"/>
  <path class="cls-1" d="M271.72,115.33c.09.45-.04.8-.48,1-.02-.42.15-.75.48-1Z"/>
  <path class="cls-1" d="M271.25,116.3c.06.45-.08.79-.5.99-.02-.42.16-.74.5-.99Z"/>
  <path class="cls-1" d="M270.76,117.25c.05.44-.1.77-.5.99-.01-.42.16-.75.5-.99Z"/>
  <path class="cls-34" d="M44.29,138.1c-.11-.5-.08-.94.45-1.19.06.48-.09.88-.45,1.19Z"/>
  <path class="cls-34" d="M43.8,139.32c-.13-.49.05-.85.46-1.11.04.45-.09.83-.46,1.11Z"/>
  <path class="cls-34" d="M43.36,140.31c-.1-.44,0-.8.44-1,.05.42,0,.8-.44,1Z"/>
  <path class="cls-24" d="M79.76,62.48c.28-.41.66-.46,1.1-.34-.3.34-.68.39-1.1.34Z"/>
  <path class="cls-10" d="M211.19,47.67c-.36-.27-.42-.64-.33-1.05.3.29.37.65.33,1.05Z"/>
  <path class="cls-26" d="M49.55,150.33c.01.38-.07.72-.41.95-.02-.38.12-.7.41-.95Z"/>
  <path class="cls-37" d="M31.84,172.55c-.12-.47-.04-.87.38-1.17.06.45-.04.85-.38,1.17Z"/>
  <path class="cls-10" d="M211.6,49.12c-.32-.26-.37-.61-.3-.99.26.28.37.61.3.99Z"/>
  <path class="cls-10" d="M212.06,51.01c-.31-.25-.35-.58-.29-.94.23.27.37.58.29.94Z"/>
  <path class="cls-37" d="M31.36,174.08c-.11-.5-.03-.94.42-1.26.06.48-.03.92-.42,1.26Z"/>
  <path class="cls-37" d="M30.88,175.51c-.12-.52.02-.95.45-1.28.05.49-.04.94-.45,1.28Z"/>
  <path class="cls-10" d="M212.59,52.96c-.33-.26-.4-.6-.33-.99.28.28.38.61.33.99Z"/>
  <path class="cls-10" d="M213.04,54.87c-.33-.27-.38-.63-.3-1.02.27.29.37.63.3,1.02Z"/>
  <path class="cls-29" d="M145.53,54.52c.32-.1.62-.09.84.21-.32.09-.61.05-.84-.21Z"/>
  <path class="cls-48" d="M188.36,8.8c-.28.02-.49-.1-.63-.33.29-.03.5.07.63.33Z"/>
  <path class="cls-46" d="M60.13,23.82c-.17.12-.35.24-.52.36.08-.26.25-.37.52-.36Z"/>
  <path class="cls-46" d="M58.69,24.74c-.19.13-.37.26-.56.38.1-.25.28-.38.56-.38Z"/>
  <path class="cls-46" d="M57.23,25.72c-.18.12-.35.24-.53.36.09-.25.26-.38.53-.36Z"/>
  <path class="cls-48" d="M143.48,31.46c.27,0,.46.13.6.36-.28.01-.48-.11-.6-.36Z"/>
  <path class="cls-24" d="M49.08,31.87c-.08.27-.26.42-.55.43.06-.3.25-.44.55-.43Z"/>
  <path class="cls-48" d="M144.36,31.96c.29,0,.51.12.68.36-.31.03-.54-.08-.68-.36Z"/>
  <path class="cls-24" d="M48.56,32.28c-.11.29-.31.47-.63.48.09-.31.31-.48.63-.48Z"/>
  <path class="cls-48" d="M145.34,32.43c.3,0,.51.14.67.39-.31.02-.53-.11-.67-.39Z"/>
  <path class="cls-24" d="M47.66,32.98c-.04.23-.17.35-.4.36.03-.24.16-.36.4-.36Z"/>
  <path class="cls-48" d="M146.03,32.82c.15.11.3.22.45.33-.24.01-.38-.11-.45-.33Z"/>
  <path class="cls-24" d="M47.19,33.39c-.06.26-.22.4-.49.4.04-.29.2-.42.49-.4Z"/>
  <path class="cls-24" d="M46.68,33.82c-.06.26-.22.41-.49.44.04-.28.2-.43.49-.44Z"/>
  <path class="cls-7" d="M133.01,35.21c-.13-.09-.26-.18-.38-.27.21-.02.32.08.38.27Z"/>
  <path class="cls-7" d="M133.96,35.72c-.13-.09-.27-.18-.4-.27.13.09.27.18.4.27Z"/>
  <path class="cls-7" d="M134.64,36.11c-.28,0-.48-.14-.62-.37.3-.02.5.1.62.37Z"/>
  <path class="cls-7" d="M135.55,36.6c-.26.02-.43-.1-.55-.32.26-.03.46.06.55.32Z"/>
  <path class="cls-7" d="M136.46,37.11c-.24,0-.41-.11-.51-.32.26-.03.42.09.51.32Z"/>
  <path class="cls-7" d="M137.39,37.6c-.16-.1-.32-.2-.48-.3.24-.02.39.09.48.3Z"/>
  <path class="cls-7" d="M138.27,38.12c-.13-.1-.26-.2-.4-.3.13.1.26.2.4.3Z"/>
  <path class="cls-7" d="M138.96,38.51c-.28,0-.49-.13-.64-.36.29-.01.51.1.64.36Z"/>
  <path class="cls-7" d="M139.87,39.04c-.19-.12-.39-.24-.58-.37.28,0,.46.13.58.37Z"/>
  <path class="cls-7" d="M140.7,39.57c-.16-.11-.31-.23-.47-.35.16.11.31.23.47.35Z"/>
  <path class="cls-7" d="M141.36,39.98c-.3-.01-.51-.16-.66-.41.31,0,.52.14.66.41Z"/>
  <path class="cls-7" d="M142.19,40.5c-.25,0-.42-.13-.51-.35.25,0,.42.13.51.35Z"/>
  <path class="cls-51" d="M240.52,42.9c-.29-.04-.45-.21-.49-.49.3.03.46.19.49.49Z"/>
  <path class="cls-29" d="M147.87,43.89c-.14-.11-.28-.22-.42-.33.14.11.28.22.42.33Z"/>
  <path class="cls-51" d="M241.47,43.87c-.28-.04-.44-.2-.47-.49.3.03.46.19.47.49Z"/>
  <path class="cls-29" d="M148.53,44.32c-.29-.01-.49-.16-.63-.41.28.02.49.17.63.41Z"/>
  <path class="cls-51" d="M241.94,44.36c-.28-.04-.44-.2-.47-.49.3.03.45.19.47.49Z"/>
  <path class="cls-29" d="M149.34,44.86c-.26-.02-.43-.17-.53-.41.27.01.43.17.53.41Z"/>
  <path class="cls-33" d="M34.71,45.39c-.02.24-.15.39-.39.43,0-.26.14-.39.39-.43Z"/>
  <path class="cls-33" d="M34.24,45.9c-.02.21-.12.34-.34.37,0-.23.11-.35.34-.37Z"/>
  <path class="cls-33" d="M33.67,46.62c0,.31-.17.49-.45.58.02-.3.16-.5.45-.58Z"/>
  <path class="cls-33" d="M33.23,47.19c-.04.28-.2.44-.47.51,0-.31.17-.47.47-.51Z"/>
  <path class="cls-33" d="M32.77,47.7c-.01.28-.15.45-.42.51,0-.28.13-.46.42-.51Z"/>
  <path class="cls-33" d="M32.32,48.24c-.02.26-.15.41-.4.46-.01-.28.14-.42.4-.46Z"/>
  <path class="cls-60" d="M174.23,51.12c.27.02.44.17.55.4-.26-.02-.44-.16-.55-.4Z"/>
  <path class="cls-60" d="M174.81,51.55c.16.13.32.27.48.4-.26-.01-.41-.16-.48-.4Z"/>
  <path class="cls-60" d="M175.35,51.99c.13.11.26.23.39.34-.22-.01-.34-.13-.39-.34Z"/>
  <path class="cls-60" d="M176.14,52.55c.19.14.38.27.57.41-.28,0-.47-.15-.57-.41Z"/>
  <path class="cls-35" d="M186.21,60.72c.26.05.44.2.54.45-.18-.15-.36-.3-.54-.45Z"/>
  <path class="cls-35" d="M186.76,61.17c.17.13.34.27.51.4-.26-.03-.42-.16-.51-.4Z"/>
  <path class="cls-35" d="M187.31,61.61c.14.12.28.25.42.37-.14-.12-.28-.25-.42-.37Z"/>
  <path class="cls-49" d="M256.31,62.12c-.26-.13-.4-.34-.39-.64.29.11.41.33.39.64Z"/>
  <path class="cls-51" d="M241,43.39c-.28-.04-.44-.2-.48-.49.3.02.46.19.48.49Z"/>
  <path class="cls-35" d="M188.64,62.61c.18.14.36.27.54.41-.26-.03-.44-.17-.54-.41Z"/>
  <path class="cls-18" d="M121.5,150.85c.15.2.31.41.46.61-.28-.1-.44-.3-.46-.61Z"/>
  <path class="cls-18" d="M147.8,151.29c-.12-.14-.24-.29-.36-.43.23.06.36.19.36.43Z"/>
  <path class="cls-18" d="M148.91,152.73c-.15-.2-.31-.4-.46-.6.27.11.43.31.46.6Z"/>
  <path class="cls-18" d="M149.33,153.23c-.15-.17-.29-.34-.44-.51.27.07.42.23.44.51Z"/>
  <path class="cls-18" d="M149.75,153.73c-.13-.16-.27-.31-.4-.47.25.05.39.21.4.47Z"/>
  <path class="cls-18" d="M150.13,154.16c-.11-.12-.21-.23-.32-.35.2.03.32.14.32.35Z"/>
  <path class="cls-57" d="M242.39,155.06c-.06.28-.23.45-.51.53.04-.3.21-.48.51-.53Z"/>
  <path class="cls-57" d="M241.92,155.56c-.07.27-.24.44-.5.53.04-.3.2-.48.5-.53Z"/>
  <path class="cls-57" d="M241.45,156.05c-.07.26-.24.44-.5.52.04-.29.21-.47.5-.52Z"/>
  <path class="cls-57" d="M240.98,156.54c-.17.17-.33.34-.5.51.05-.29.21-.46.5-.51Z"/>
  <path class="cls-57" d="M240.5,157.03c-.16.17-.33.34-.49.51.05-.28.21-.45.49-.51Z"/>
  <path class="cls-57" d="M240.03,157.52c-.16.17-.32.34-.49.5.05-.28.21-.44.49-.5Z"/>
  <path class="cls-57" d="M239.55,158.01c-.16.17-.32.33-.48.5.05-.27.21-.44.48-.5Z"/>
  <path class="cls-57" d="M239.08,158.5c-.16.16-.32.33-.48.49.05-.27.21-.43.48-.49Z"/>
  <path class="cls-57" d="M238.6,158.98c-.16.16-.32.32-.48.48.06-.27.22-.43.48-.48Z"/>
  <path class="cls-57" d="M238.12,159.46c-.16.16-.32.32-.49.48.06-.27.22-.43.49-.48Z"/>
  <path class="cls-57" d="M237.64,159.94c-.17.16-.34.32-.51.48.07-.26.24-.42.51-.48Z"/>
  <path class="cls-57" d="M237.15,160.4c-.17.16-.34.32-.52.49.06-.28.23-.44.52-.49Z"/>
  <path class="cls-57" d="M236.66,160.86c-.17.17-.34.34-.51.5.06-.28.23-.45.51-.5Z"/>
  <path class="cls-57" d="M236.18,161.34c-.17.17-.34.34-.51.51.06-.28.23-.45.51-.51Z"/>
  <path class="cls-57" d="M235.7,161.81c-.17.17-.34.34-.51.51.06-.28.23-.45.51-.51Z"/>
  <path class="cls-57" d="M235.22,162.29c-.17.17-.34.34-.51.51.06-.28.23-.45.51-.51Z"/>
  <path class="cls-57" d="M234.74,162.77c-.09.26-.27.44-.53.51.08-.28.25-.45.53-.51Z"/>
  <path class="cls-43" d="M145.1,147.92c-.26-.11-.43-.3-.49-.58.27.1.45.28.49.58Z"/>
  <path class="cls-43" d="M145.52,148.42c-.15-.18-.3-.35-.46-.53.28.07.43.24.46.53Z"/>
  <path class="cls-56" d="M221.81,174.46c-.06.22-.2.35-.43.38.04-.24.17-.38.43-.38Z"/>
  <path class="cls-56" d="M221.34,174.87c-.07.25-.24.4-.5.42.08-.25.23-.41.5-.42Z"/>
  <path class="cls-56" d="M220.84,175.29c-.11.24-.28.4-.56.42.08-.28.27-.42.56-.42Z"/>
  <path class="cls-26" d="M50.47,148.24c-.11.22-.23.44-.34.66,0-.28.1-.5.34-.66Z"/>
  <path class="cls-56" d="M220.31,175.69c-.09.28-.28.46-.58.49.09-.29.28-.46.58-.49Z"/>
  <path class="cls-43" d="M145.93,148.93c-.14-.17-.27-.34-.41-.5.26.07.4.23.41.5Z"/>
  <path class="cls-56" d="M219.41,176.41c-.13.12-.26.24-.39.35.03-.23.15-.35.39-.35Z"/>
  <path class="cls-56" d="M218.96,176.82c-.06.23-.21.37-.45.41.04-.26.19-.4.45-.41Z"/>
  <path class="cls-56" d="M218.47,177.26c-.07.25-.23.4-.49.43.06-.26.22-.41.49-.43Z"/>
  <path class="cls-43" d="M146.32,149.37c-.11-.13-.23-.26-.34-.38.21.04.33.16.34.38Z"/>
  <path class="cls-56" d="M217.97,177.7c-.09.25-.26.4-.53.44.07-.27.25-.42.53-.44Z"/>
  <path class="cls-56" d="M217.46,178.12c-.11.27-.3.43-.59.46.09-.29.29-.44.59-.46Z"/>
  <path class="cls-56" d="M216.05,179.24c-.06.23-.22.36-.46.38.05-.25.19-.39.46-.38Z"/>
  <path class="cls-56" d="M215.57,179.63c-.09.24-.26.39-.52.43.07-.27.24-.42.52-.43Z"/>
  <path class="cls-26" d="M50,149.26c-.11.2-.21.39-.32.59-.02-.27.09-.46.32-.59Z"/>
  <path class="cls-56" d="M215.06,180.05c-.11.27-.29.43-.59.45.09-.28.29-.43.59-.45Z"/>
  <path class="cls-56" d="M213.65,181.16c-.06.24-.22.36-.45.38.05-.25.19-.39.45-.38Z"/>
  <path class="cls-56" d="M213.18,181.55c-.1.24-.27.39-.53.43.07-.27.25-.42.53-.43Z"/>
  <path class="cls-56" d="M212.66,181.97c-.11.27-.3.43-.59.46.1-.28.3-.43.59-.46Z"/>
  <path class="cls-56" d="M211.25,183.06c-.08.24-.25.37-.51.37.08-.25.24-.38.51-.37Z"/>
  <path class="cls-56" d="M210.75,183.42c-.12.26-.31.42-.6.44.1-.28.29-.44.6-.44Z"/>
  <path class="cls-56" d="M209.81,184.07c-.14.12-.28.24-.42.36.06-.22.19-.35.42-.36Z"/>
  <path class="cls-56" d="M209.35,184.46c-.09.24-.26.39-.53.41.09-.25.26-.39.53-.41Z"/>
  <path class="cls-56" d="M208.83,184.86c-.12.26-.32.42-.61.44.12-.27.32-.42.61-.44Z"/>
  <path class="cls-56" d="M207.89,185.5c-.14.12-.29.25-.43.37.14-.12.29-.25.43-.37Z"/>
  <path class="cls-56" d="M207.43,185.89c-.09.24-.26.39-.53.41.09-.24.27-.39.53-.41Z"/>
  <path class="cls-56" d="M206.91,186.29c-.12.26-.31.42-.6.44.11-.27.31-.42.6-.44Z"/>
  <path class="cls-56" d="M205.97,186.93c-.06.22-.21.34-.44.37.15-.12.29-.24.44-.37Z"/>
  <path class="cls-56" d="M205.5,187.32c-.12.24-.31.38-.58.4.12-.25.31-.39.58-.4Z"/>
  <path class="cls-56" d="M204.54,187.93c-.15.11-.29.22-.44.34.15-.11.29-.22.44-.34Z"/>
  <path class="cls-56" d="M204.07,188.28c-.12.24-.3.38-.58.41.11-.25.3-.39.58-.41Z"/>
  <path class="cls-56" d="M202.61,189.27c-.08.24-.25.38-.5.39.08-.24.24-.39.5-.39Z"/>
  <path class="cls-56" d="M202.12,189.66c-.13.26-.33.41-.63.42.12-.27.34-.41.63-.42Z"/>
  <path class="cls-58" d="M74.93,193.5c-.12-.21-.24-.42-.36-.63.25.14.36.36.36.63Z"/>
  <path class="cls-58" d="M75.82,194.93c-.11-.16-.22-.32-.33-.48.11.16.22.32.33.48Z"/>
  <path class="cls-58" d="M76.72,196.36c-.1-.13-.2-.25-.3-.38.1.13.2.25.3.38Z"/>
  <path class="cls-58" d="M77.32,197.34c-.12-.19-.25-.38-.37-.57.24.11.37.3.37.57Z"/>
  <path class="cls-58" d="M78.18,198.76c-.1-.14-.2-.29-.3-.43.1.14.2.29.3.43Z"/>
  <path class="cls-58" d="M78.7,199.72c-.11-.17-.21-.33-.32-.5.11.17.21.33.32.5Z"/>
  <path class="cls-58" d="M79.21,200.69c-.11-.19-.23-.37-.34-.56.23.11.35.3.34.56Z"/>
  <path class="cls-58" d="M80.11,202.11c-.11-.13-.21-.26-.32-.39.11.13.21.26.32.39Z"/>
  <path class="cls-58" d="M80.66,203.09c-.12-.19-.23-.38-.35-.57.24.11.35.31.35.57Z"/>
  <path class="cls-58" d="M81.58,204.52c-.11-.15-.22-.31-.33-.46.2.09.34.23.33.46Z"/>
  <path class="cls-43" d="M111.91,138.85c.15.21.3.41.45.62-.15-.21-.3-.41-.45-.62Z"/>
  <path class="cls-58" d="M82.47,205.94c-.13-.08-.22-.2-.28-.34.09.11.19.23.28.34Z"/>
  <path class="cls-58" d="M83.06,206.95c-.12-.16-.24-.33-.36-.49.22.09.35.24.36.49Z"/>
  <path class="cls-58" d="M83.42,207.37c-.12-.08-.22-.18-.28-.31.18.03.27.13.28.31Z"/>
  <path class="cls-31" d="M112.06,207.82c-.25.03-.44-.08-.57-.29.26-.04.46.03.57.29Z"/>
  <path class="cls-31" d="M113.46,208.34c-.17-.09-.35-.18-.52-.27.24-.04.41.05.52.27Z"/>
  <path class="cls-58" d="M84.39,208.81c-.13-.08-.22-.18-.28-.31.18.03.27.13.28.31Z"/>
  <path class="cls-31" d="M114.89,208.8c-.17-.09-.35-.18-.52-.27.24-.04.42.05.52.27Z"/>
  <path class="cls-43" d="M111.23,138.42c.3.03.54.17.69.44-.23-.15-.46-.29-.69-.44Z"/>
  <path class="cls-31" d="M115.92,209.22c-.25.05-.44-.06-.57-.27.25-.04.46.01.57.27Z"/>
  <path class="cls-43" d="M110.54,138.98c.11-.32.35-.51.68-.58-.23.19-.45.38-.68.58Z"/>
  <path class="cls-58" d="M84.99,209.82c-.12-.17-.24-.33-.36-.5.23.08.35.25.36.5Z"/>
  <path class="cls-31" d="M117.26,209.67c-.21.07-.35-.02-.44-.2.2-.05.37-.02.44.2Z"/>
  <path class="cls-43" d="M136.41,138.37c.03-.23.05-.46.08-.68.3.07.45.28.51.56-.07.07-.13.14-.2.22-.18.11-.31.07-.4-.11v.02Z"/>
  <path class="cls-58" d="M85.35,210.24c-.13-.07-.22-.18-.28-.31.18.03.28.13.28.31Z"/>
  <path class="cls-43" d="M136.29,137.41c-.25-.04-.38-.19-.39-.44.26.03.41.16.39.44Z"/>
  <path class="cls-43" d="M135.87,136.94c-.27-.06-.42-.23-.43-.51.28.06.42.23.43.51Z"/>
  <path class="cls-54" d="M250.14,217.53c.02-.28.18-.45.42-.56-.02.28-.15.47-.42.56Z"/>
  <path class="cls-43" d="M135.45,136.44c-.27-.08-.43-.24-.48-.52.3.05.47.21.48.52Z"/>
  <path class="cls-1" d="M268.71,120.93c0,.3-.16.5-.41.63.02-.28.15-.5.41-.63Z"/>
  <path class="cls-1" d="M269.24,120.05c.01.28-.13.46-.37.58.01-.26.14-.46.37-.58Z"/>
  <path class="cls-1" d="M269.76,119.09c.01.28-.12.48-.37.6,0-.27.15-.46.37-.6Z"/>
  <path class="cls-1" d="M270.28,118.21c0,.28-.15.47-.4.58.13-.19.26-.39.4-.58Z"/>
  <path class="cls-19" d="M104.34,223.72c.13.18.25.36.38.54-.23-.11-.37-.28-.38-.54Z"/>
  <path class="cls-19" d="M105.38,225.2c.11.13.22.25.34.38-.2-.05-.33-.16-.34-.38Z"/>
  <path class="cls-19" d="M105.76,225.64c.14.17.27.33.41.5-.25-.07-.39-.23-.41-.5Z"/>
  <path class="cls-18" d="M147,150.33c-.26-.12-.42-.32-.47-.6.27.11.43.31.47.6Z"/>
  <path class="cls-19" d="M106.81,227.12c.11.13.22.26.34.39-.2-.05-.34-.16-.34-.39Z"/>
  <path class="cls-3" d="M17.46,95.72c-.1.27-.28.41-.58.4.08-.29.29-.4.58-.4Z"/>
  <path class="cls-19" d="M107.19,227.56c.13.19.26.39.39.58-.24-.12-.37-.32-.39-.58Z"/>
  <path class="cls-3" d="M18.93,94.81c-.11.25-.29.4-.57.4.11-.25.29-.39.57-.4Z"/>
  <path class="cls-3" d="M19.88,94.27c-.16.27-.38.42-.7.41.15-.27.38-.41.7-.41Z"/>
  <path class="cls-19" d="M107.8,228.56c.11.12.21.24.32.36-.11-.12-.21-.24-.32-.36Z"/>
  <path class="cls-43" d="M143.96,146.5c-.12-.14-.25-.29-.37-.43.22.06.36.19.37.43Z"/>
  <path class="cls-19" d="M108.17,228.99c.13.17.27.34.4.51-.25-.08-.39-.24-.4-.51Z"/>
  <path class="cls-3" d="M20.79,93.75c-.17.28-.41.44-.74.45.16-.3.4-.45.74-.45Z"/>
  <path class="cls-19" d="M108.57,229.5c.15.2.3.4.45.6-.26-.12-.41-.32-.45-.6Z"/>
  <path class="cls-18" d="M147.41,150.83c-.14-.17-.29-.35-.43-.52.27.07.42.24.43.52Z"/>
  <path class="cls-19" d="M109.69,230.95c.12.13.23.25.35.38-.21-.04-.34-.15-.35-.38Z"/>
  <path class="cls-19" d="M110.09,231.38c.14.16.28.32.41.48-.24-.07-.39-.22-.41-.48Z"/>
  <path class="cls-19" d="M110.52,231.88c.14.2.28.4.43.6-.25-.12-.39-.32-.43-.6Z"/>
  <path class="cls-19" d="M111.58,233.33c.12.15.25.3.37.45-.23-.06-.37-.19-.37-.45Z"/>
  <path class="cls-38" d="M118.65,241.96c.15.17.3.35.46.52-.25-.09-.41-.25-.46-.52Z"/>
  <path class="cls-38" d="M119.8,243.43c.13.08.24.19.32.32-.19-.02-.31-.12-.32-.32Z"/>
  <path class="cls-38" d="M120.22,243.85c.13.14.25.27.38.41-.13-.14-.25-.27-.38-.41Z"/>
  <path class="cls-38" d="M120.65,244.33c.14.15.28.31.42.46-.25-.05-.4-.2-.42-.46Z"/>
  <path class="cls-38" d="M121.09,244.82c.15.16.3.31.45.47-.26-.05-.41-.21-.45-.47Z"/>
  <path class="cls-38" d="M121.55,245.31c.15.16.31.32.46.48-.26-.06-.41-.23-.46-.48Z"/>
  <path class="cls-38" d="M122.02,245.79c.16.17.32.33.47.5-.26-.07-.42-.23-.47-.5Z"/>
  <path class="cls-38" d="M122.48,246.28c.16.17.32.34.48.52-.27-.07-.42-.25-.48-.52Z"/>
  <path class="cls-3" d="M21.34,93.39c-.12.24-.31.37-.58.37.12-.24.3-.37.58-.37Z"/>
  <path class="cls-58" d="M123.83,258.79c-.13-.12-.26-.25-.39-.37.13.12.26.25.39.37Z"/>
  <path class="cls-58" d="M124.36,259.26c-.16-.14-.31-.28-.47-.41.16.14.31.28.47.41Z"/>
  <path class="cls-3" d="M22.24,92.87c-.11.25-.3.39-.58.38.12-.24.31-.38.58-.38Z"/>
  <path class="cls-52" d="M9.72,93.27c.07-.29.25-.45.55-.45-.04.32-.23.46-.55.45Z"/>
  <path class="cls-52" d="M10.23,92.85c.11-.33.33-.5.68-.49-.12.3-.34.48-.68.49Z"/>
  <path class="cls-52" d="M14,75.32c0,.29-.12.52-.37.69-.02-.3.08-.54.37-.69Z"/>
  <path class="cls-52" d="M14.49,74.42c0,.27-.13.48-.36.62-.02-.29.1-.5.36-.62Z"/>
  <path class="cls-52" d="M14.96,73.48c0,.27-.12.46-.34.6-.03-.28.08-.48.34-.6Z"/>
  <path class="cls-52" d="M15.46,72.57c0,.25-.11.43-.33.55-.03-.27.09-.44.33-.55Z"/>
  <path class="cls-52" d="M15.94,71.6c0,.25-.1.44-.32.56-.04-.27.09-.45.32-.56Z"/>
  <path class="cls-52" d="M16.44,70.72c-.11.16-.22.32-.32.48-.02-.24.1-.4.32-.48Z"/>
  <path class="cls-52" d="M17.35,69.1c-.01.29-.15.51-.4.65-.02-.31.12-.53.4-.65Z"/>
  <path class="cls-52" d="M17.84,68.22c0,.26-.12.45-.35.58-.02-.27.09-.47.35-.58Z"/>
  <path class="cls-52" d="M18.36,67.37c-.11.16-.22.31-.33.47-.02-.25.1-.4.33-.47Z"/>
  <path class="cls-52" d="M19.27,65.76c0,.29-.14.5-.39.64-.03-.31.11-.52.39-.64Z"/>
  <path class="cls-52" d="M19.78,64.9c0,.25-.12.43-.34.55-.03-.27.09-.45.34-.55Z"/>
  <path class="cls-52" d="M20.3,64.05c-.11.14-.22.29-.33.43-.02-.24.1-.37.33-.43Z"/>
  <path class="cls-52" d="M20.72,63.4c-.02.28-.15.47-.39.61-.01-.3.12-.5.39-.61Z"/>
  <path class="cls-35" d="M189.23,63.04c.14.12.28.23.41.35-.14-.12-.28-.23-.41-.35Z"/>
  <path class="cls-53" d="M26.06,92.35c7.73-4.08,15.68-7.66,23.9-10.66,4.62-1.69,9.28-3.22,14.02-4.5,1.55-.42,2.97-.37,4.26.69-.61,1.15-1.67,1.9-2.56,2.78-2.55,2.53-4.71,5.35-6.69,8.33-2.01,3.04-4.07,6.05-6.11,9.08-.14.17-.28.34-.41.52-.01.15-.05.29-.1.43-.12.17-.25.33-.41.47,0,0,0,0,0,0-.42-.22-1.03-.34-1.24-.69-1.02-1.71-2.97-2.02-4.43-3.04-1.4-.97-3.03-.71-4.61-.26-3.44.98-6.56.27-9.31-1.95-1.03-.83-2.12-.94-3.33-.86-1.01.06-2.06.42-2.98-.35Z"/>
  <path class="cls-61" d="M203.09,229.02c.72.74,1.65.46,2.49.47,6.69.03,13.38.03,20.07.04-.74.7-1.67.45-2.52.43-2.49-.06-4.92.15-7.34.8-1.61.43-3.31.32-4.97.55-3.35.46-6.48,1.46-9.61,2.67-5.22,2.02-10.24,4.44-15.23,6.95-.43.22-.94.34-1.27.66-2.2,2.13-4.94,2.38-7.78,2.3-.72-.02-1.44,0-2.16,0-5.38-1.08-10.59-2.76-15.83-4.32-.48-.32-.97-.63-1.45-.95,1.99-1.35,4.43-1.62,6.54-2.8,5.74-3.2,11.72-5.76,18.49-5.96,2.7-.08,5.37-.77,8.04-1.28,4.05-.78,8.05.2,12.07.41.15-.02.3,0,.44.03Z"/>
  <g>
    <path class="cls-21" d="M85.09,130.19c.62.68.69,1.59,1,2.4.69,1.79,1.16,2.25,3.05,1.89,4.05-.78,8.12-.22,12.18-.45,1.93-.11,3.83.15,5.69.52,2.94.59,5.84-.13,8.77-.07,2.33.05,4.62.18,6.85.82,2.62.75,5.36.62,8.03,1.04,1.55.24,2.95.48,4.19,1.46.43.34.97.55,1.56.57.08.06.16.12.24.18.47.51.9,1.06,1.53,1.38.18.09.34.21.48.35.16.04.23.14.21.31.06.3.22.51.52.6l-.04-.05c.06.27.25.42.46.56l-.02-.02c.12.21.29.36.47.51h0c.15.16.29.33.43.5l.03.04c.18.11.31.26.4.45l.07.07c.18.06.28.19.34.36.17.05.24.17.22.34.07.29.23.5.53.58l-.04-.05c.05.27.25.43.47.56l-.02-.03c.11.22.29.38.48.52h-.01c.13.18.3.32.44.5l.02.02c.16.11.28.26.37.43.32.2.59.44.65.85.09.26.25.46.49.58l-.03-.03c.1.23.28.37.46.53h0c.15.16.29.32.41.5l.04.06c.17.08.28.21.34.38.17.06.24.18.21.35.07.27.24.46.47.6l-.02-.02c.11.2.29.35.43.52l.02.03c.15.12.28.26.36.43.33.2.59.44.65.84.08.26.24.45.46.6h-.01c.12.18.3.32.44.5l.02.03c.17.13.3.28.4.47l.06.09c.17.06.28.17.32.35.18.04.27.16.26.34-.19,1.49-1.27,1.02-1.87.61-2.27-1.56-4.54-1-6.9-.36-3.1.84-6.27,1.18-9.47,1.13-2.54-.04-4.92-.57-6.86-2.36-.9-.83-2.16-1.02-3.12-1.75-.17-.04-.24-.15-.22-.33-.07-.27-.23-.46-.46-.61h0c-.22-1.55-.93-2.73-2.47-3.3l.03.03c-.05-.27-.25-.43-.46-.57l.02.03c-.11-.21-.29-.35-.44-.54v-.02c-.17-.12-.3-.27-.39-.44-.11-.14-.21-.27-.32-.41.17-.7-.33-.84-.82-.99l.02.02c-.08-.24-.27-.4-.47-.55h.01c-.12-.18-.3-.33-.46-.49h0c-.16-.16-.29-.32-.41-.5l-.05-.06c-.17-.08-.28-.21-.34-.38-.16-.03-.24-.13-.22-.3-.04-.31-.21-.52-.5-.64l.04.05c-.09-.25-.27-.42-.5-.53l.03.04c-.1-.23-.28-.39-.47-.53v.02c-.11-.19-.29-.34-.43-.52l-.02-.03c-.16-.11-.28-.25-.36-.43-.16-.06-.22-.18-.18-.34-.07-.27-.24-.46-.45-.62h.01c-.18-.22-.38-.41-.69-.43v-.02c-.37.04-.59.24-.69.58-.57,1.45-1.69,2.5-2.71,3.6-1.16,1.25-1.62,2.58-1.61,4.31.08,11.18.06,22.36.07,33.54,0,.22.02.47-.42.67-3.21-1.98-6.75-3.57-10.25-5.24-2.74-1.31-5.56-2.39-8.48-3.23-2.07-.59-2.09-.61-2.1-2.69-.04-8.23-.1-16.45-.09-24.68,0-5.03-.15-10.05.13-15.08Z"/>
    <path class="cls-21" d="M119.04,147.54c2.45.26,3.16,1.22,2.47,3.31-1-.97-1.79-2.1-2.47-3.31Z"/>
    <path class="cls-21" d="M116.67,144.65c.43-.17.9-.52,1.25.07.26.44-.03.73-.42.92-.39-.23-.72-.51-.82-.99Z"/>
    <path class="cls-21" d="M143.15,145.54c-.16-.17-.32-.34-.48-.52.26.08.44.24.48.52Z"/>
    <path class="cls-21" d="M142.69,145.05c-.26-.1-.41-.29-.47-.56.29.08.43.28.47.56Z"/>
    <path class="cls-21" d="M142.27,144.54c-.29-.09-.46-.29-.53-.58.28.1.47.28.53.58Z"/>
    <path class="cls-21" d="M116.22,144.13c.16.18.31.36.47.55-.27-.08-.43-.26-.47-.55Z"/>
    <path class="cls-21" d="M115.78,143.64c.15.17.31.34.46.51-.28-.06-.44-.22-.46-.51Z"/>
    <path class="cls-21" d="M118.61,147.01c.25.11.41.3.46.57-.28-.08-.44-.27-.46-.57Z"/>
    <path class="cls-21" d="M141.51,143.62c-.11-.12-.22-.24-.34-.36.21.03.33.14.34.36Z"/>
    <path class="cls-21" d="M115.36,143.14c.14.16.27.33.41.49-.26-.06-.4-.22-.41-.49Z"/>
    <path class="cls-21" d="M117.81,146.05c.12.15.25.29.37.44-.24-.04-.38-.18-.37-.44Z"/>
    <path class="cls-21" d="M141.11,143.18c-.13-.15-.27-.3-.4-.45.23.06.37.21.4.45Z"/>
    <path class="cls-21" d="M114.97,142.7c.11.13.23.25.34.38-.22-.04-.34-.16-.34-.38Z"/>
    <path class="cls-21" d="M143.57,146.04c-.15-.17-.29-.34-.44-.52.28.06.42.24.44.52Z"/>
    <path class="cls-21" d="M140.68,142.69c-.14-.17-.29-.34-.43-.51.26.07.4.24.43.51Z"/>
    <path class="cls-21" d="M140.25,142.19c-.16-.17-.31-.34-.47-.51.27.07.44.23.47.51Z"/>
    <path class="cls-21" d="M114.25,141.75c.29.12.45.34.5.64-.29-.12-.45-.34-.5-.64Z"/>
    <path class="cls-21" d="M139.8,141.7c-.25-.11-.41-.29-.46-.56.28.09.42.29.46.56Z"/>
    <path class="cls-21" d="M113.79,141.27c.26.09.43.27.5.53-.28-.08-.45-.25-.5-.53Z"/>
    <path class="cls-21" d="M139.38,141.18c-.29-.1-.46-.3-.52-.6.28.11.47.29.52.6Z"/>
    <path class="cls-21" d="M113.35,140.77c.16.18.32.36.47.53-.28-.07-.44-.24-.47-.53Z"/>
    <path class="cls-21" d="M112.92,140.27c.15.17.29.34.44.52-.26-.08-.42-.24-.44-.52Z"/>
    <path class="cls-21" d="M138.65,140.27c-.16-.03-.32-.06-.48-.09,0,0-.04-.2-.04-.2,0,0,.14-.15.14-.15.12.15.25.29.37.44Z"/>
    <path class="cls-21" d="M112.55,139.81c.12.14.24.29.36.43-.23-.05-.36-.19-.36-.43Z"/>
    <path class="cls-21" d="M137.85,139.31c.25.08.4.26.43.53,0,0-.15.12-.15.12-.2-.06-.33-.19-.4-.38.04-.09.08-.18.12-.27Z"/>
    <path class="cls-21" d="M137.43,138.77c.26.09.39.28.42.54l-.15.14c-.22-.06-.37-.19-.45-.41.06-.09.12-.18.18-.27Z"/>
    <path class="cls-21" d="M136.99,138.24c.27.08.41.25.44.52-.06.06-.12.12-.19.18-.27-.03-.44-.18-.51-.44.08-.09.17-.18.25-.26Z"/>
    <path class="cls-21" d="M118.19,146.51c.15.18.29.36.44.54-.26-.08-.42-.25-.44-.54Z"/>
    <path class="cls-21" d="M136.39,138.35c.14.01.27.05.4.11.15.16.3.32.45.49.15.17.3.34.45.51.14.17.29.33.43.5.04.07.06.15.05.23-1.13-.1-1.64-.79-1.78-1.84Z"/>
  </g>
  <path class="cls-13" d="M242.88,156.05c3.49-3.71,6.78-7.58,10.02-11.51.14-.17.39-.26.59-.39-.34,1.8-.94,3.52-1.69,5.17-.8,1.77-1.18,3.59-1.23,5.53-.12,4.78.81,9.51.52,14.29-.08,1.3.6,2.46,1.01,3.66.3.88.45,1.68-.05,2.5-1.5,1.56-3.43,2.54-5.18,3.75-2.41,1.67-4.9,3.23-7.35,4.84-1.64.16-2.71,1.61-4.29,1.91-.07-.14-.19-.3-.17-.44,1.31-6.63.42-13.48,2-20.09.33-1.39.68-2.78,1.17-4.12.09-.27.22-.51.38-.74h0c.14-.18.3-.34.48-.48h0c.14-.18.3-.34.48-.48h0c.14-.18.3-.34.48-.48h0c.14-.18.3-.34.48-.48h0c.14-.18.3-.34.48-.48h0c.15-.17.31-.33.47-.49h0c.15-.16.32-.32.47-.49h0c.17-.15.32-.31.45-.49l.02-.02c.18-.13.32-.29.44-.47l.03-.03Z"/>
  <path class="cls-37" d="M30.82,171.91c.1.56.07,1.08-.44,1.46-.06-.55,0-1.07.44-1.46Z"/>
  <path class="cls-37" d="M31.26,169.97c.12.56.11,1.09-.37,1.5-.07-.55-.05-1.08.37-1.5Z"/>
  <path class="cls-34" d="M42.84,138.82c.04.43-.12.75-.49.96-.02-.41.13-.74.49-.96Z"/>
  <path class="cls-34" d="M42.35,139.79c.04.41-.1.75-.45.98-.02-.41.08-.76.45-.98Z"/>
  <path class="cls-37" d="M31.74,168.53c.08.42-.04.76-.39,1.02-.04-.41.09-.74.39-1.02Z"/>
  <path class="cls-37" d="M30.29,173.77c.11.42.04.79-.31,1.09-.39-.3-.35-.65-.11-1.02,0,0,0-.01,0-.01.14-.02.27-.04.41-.06Z"/>
  <path class="cls-34" d="M43.27,137.82c.02.28-.11.47-.33.61-.02-.27.1-.47.33-.61Z"/>
  <path class="cls-34" d="M43.76,136.86c0,.28-.14.47-.37.6,0-.27.13-.47.37-.6Z"/>
  <path class="cls-10" d="M212.65,57.32c-.35-.24-.45-.58-.44-.98.37.23.47.57.44.98Z"/>
  <path class="cls-10" d="M213.16,59.7c-.37-.23-.46-.57-.43-.97.34.24.44.58.43.97Z"/>
  <path class="cls-10" d="M212.18,55.88c-.35-.24-.46-.58-.44-.98.37.22.47.57.44.98Z"/>
  <path class="cls-24" d="M82.19,60.67c.52-.68,1.26-.45,1.95-.46-.54.62-1.27.44-1.95.46Z"/>
  <path class="cls-24" d="M80.27,61.14c.52-.66,1.25-.45,1.92-.48-.52.66-1.25.46-1.92.48Z"/>
  <path class="cls-24" d="M75.96,62.11c.52-.69,1.26-.46,1.95-.46-.54.63-1.27.44-1.95.46Z"/>
  <path class="cls-24" d="M78.35,61.62c.37-.54.93-.49,1.48-.44-.39.5-.93.48-1.48.44Z"/>
  <path class="cls-3" d="M51.96,99.51c.14-.16.27-.32.41-.47-.14.16-.27.32-.41.47Z"/>
  <path class="cls-3" d="M52.47,98.6c.14-.17.28-.35.41-.52-.14.17-.28.35-.41.52Z"/>
  <path class="cls-12" d="M238.57,160.88c.21,1.87-.63,3.56-.93,5.34-.68,4.05-1.11,8.12-.98,12.24.08,2.56-.41,5.02-1.44,7.37-5.35,3.23-10.85,6.14-16.78,8.18,1.27-1.86,2.22-3.81,2.49-6.11.12-.99.57-2,1.07-2.89,1.11-1.99,1.41-4.16,1.75-6.37.48-3.13,1.18-6.06,4.24-8.06,2.36-1.54,4.2-3.87,6.27-5.84.16-.16.34-.3.48-.48h0c.17-.15.33-.31.48-.48h0c.17-.15.33-.31.48-.48h0c.17-.15.33-.31.48-.48h0c.17-.15.33-.31.47-.48h0c.17-.15.32-.31.47-.48h0c.17-.15.33-.31.47-.48h0c.17-.15.33-.31.47-.48h0c.16-.15.31-.15.47,0Z"/>
  <path class="cls-41" d="M29.87,173.84c.04.34.07.68.11,1.02-.05.29-.09.57-.14.86-.11.27-.25.28-.43.06,0-.68-.18-1.4.46-1.94Z"/>
  <path class="cls-41" d="M28.86,178.16c.05.54.06,1.06-.4,1.46-.04-.53-.05-1.06.4-1.46Z"/>
  <path class="cls-41" d="M29.42,177.22c-.15.01-.29.03-.43.07-.08-.41,0-.78.32-1.07.32.1.37.28.15.54-.02.15-.04.31-.05.47Z"/>
  <path class="cls-41" d="M28.36,180.08c.05.4-.03.75-.33,1.03-.07-.4,0-.76.33-1.03Z"/>
  <path class="cls-37" d="M29.47,176.75c-.05-.18-.1-.36-.15-.54.07-.14.1-.28.11-.43.14-.02.28-.04.43-.06.1.42-.05.76-.38,1.03Z"/>
  <path class="cls-9" d="M202.64,228.99c-1.99,0-3.96.1-5.95-.32-1.62-.34-3.31-.22-4.95.34-2.41.82-4.96,1.07-7.47,1.43-2.83.4-5.69.57-8.49,1.1-1.93.36-3.78,1-5.55,2.05-3.2,1.91-6.63,3.39-10.13,4.72-.86.32-1.72.27-2.6.31-4.23-1.33-8.31-3.03-12.3-4.94-2.42-1.16-4.78-2.43-7.36-3.22-.25-.3-.7-.19-.96-.48h0c-.26-.28-.7-.2-.96-.48,0,0,0,0,0,0,0-.16,0-.32,0-.48.47.08.96.09,1.4.24,2.1.74,4,.66,6.17-.29,2.35-1.03,5.05-1.25,7.59-1.85.92-.22,1.83-.52,2.73-.83,4.58-1.58,9.26-2.01,14.05-1.26,1.98.31,3.97.14,5.96.15,4.05.69,8.08,1.46,12.15,2.05,2.73.4,5.5.57,8.26.8,2.44.2,4.89.35,7.34.52.41.03.77.17,1.07.46Z"/>
  <path class="cls-11" d="M135.92,229.49c.39.01.75.11.96.48-.4,0-.75-.11-.96-.48Z"/>
  <path class="cls-11" d="M136.88,229.97c.39.02.74.11.96.48-.4,0-.74-.11-.96-.48Z"/>
  <path class="cls-57" d="M242.86,156.09c-.15.16-.29.31-.44.47.15-.16.29-.31.44-.47Z"/>
  <path class="cls-57" d="M242.4,156.57c-.15.16-.3.32-.45.48.15-.16.3-.32.45-.48Z"/>
  <path class="cls-57" d="M241.94,157.06c-.16.16-.31.33-.47.49.16-.16.31-.33.47-.49Z"/>
  <path class="cls-57" d="M241.48,157.55c-.16.16-.32.32-.47.49.16-.16.32-.32.47-.49Z"/>
  <path class="cls-57" d="M241.01,158.04c-.16.16-.32.32-.48.48.16-.16.32-.32.48-.48Z"/>
  <path class="cls-57" d="M240.53,158.52c-.16.16-.32.32-.48.48.16-.16.32-.32.48-.48Z"/>
  <path class="cls-57" d="M240.05,159c-.16.16-.32.32-.48.48.16-.16.32-.32.48-.48Z"/>
  <path class="cls-57" d="M239.57,159.48c-.16.16-.32.32-.48.48.16-.16.32-.32.48-.48Z"/>
  <path class="cls-57" d="M239.09,159.96c-.16.16-.32.32-.48.48.16-.16.32-.32.48-.48Z"/>
  <path class="cls-57" d="M238.57,160.88h-.23s-.23,0-.23,0c.17-.15.34-.29.51-.44,0,.15-.02.3-.04.45Z"/>
  <path class="cls-57" d="M238.09,160.89c-.16.16-.31.32-.47.47.16-.16.31-.32.47-.47Z"/>
  <path class="cls-57" d="M237.62,161.37c-.16.16-.31.32-.47.47.16-.16.31-.32.47-.47Z"/>
  <path class="cls-57" d="M237.14,161.85c-.16.16-.31.32-.47.48.16-.16.31-.32.47-.48Z"/>
  <path class="cls-57" d="M236.66,162.34c-.16.16-.32.32-.47.48.16-.16.32-.32.47-.48Z"/>
  <path class="cls-57" d="M236.19,162.82c-.16.16-.32.32-.48.48.16-.16.32-.32.48-.48Z"/>
  <path class="cls-57" d="M235.71,163.3c-.16.16-.32.32-.48.48.16-.16.32-.32.48-.48Z"/>
  <path class="cls-57" d="M235.23,163.77c-.16.16-.32.32-.48.48.16-.16.32-.32.48-.48Z"/>
  <path class="cls-57" d="M234.75,164.25c-.16.16-.32.32-.48.48.16-.16.32-.32.48-.48Z"/>
</svg>